<?xml version="1.0" encoding="utf-8"?>
<!-- Generator: Adobe Illustrator 14.0.0, SVG Export Plug-In . SVG Version: 6.00 Build 43363)  -->
<!DOCTYPE svg PUBLIC "-//W3C//DTD SVG 1.1//EN" "http://www.w3.org/Graphics/SVG/1.1/DTD/svg11.dtd">
<svg version="1.1" id="Calque_1" xmlns="http://www.w3.org/2000/svg" xmlns:xlink="http://www.w3.org/1999/xlink" x="0px" y="0px"
	 width="491.2px" height="144px" viewBox="0 0 491.2 144" style="enable-background:new 0 0 491.2 144;" xml:space="preserve">
<style type="text/css">
<![CDATA[
	.st0{fill-rule:evenodd;clip-rule:evenodd;}
]]>
</style>
<g>
	<path d="M9.6,57.1l-1.8,0l-1,2l-1.3-0.7l-0.6,1.2l1.3,0.6L4,64.7c-0.3,0.5-0.4,1-0.5,1.4c-0.1,0.4-0.1,0.7,0,1
		c0.1,0.3,0.2,0.6,0.5,0.8c0.2,0.2,0.5,0.4,0.9,0.6c0.4,0.2,0.7,0.3,1,0.4c0.3,0.1,0.6,0.1,0.9,0.1l0.2-1.2c-0.2,0-0.5,0-0.7-0.1
		c-0.2,0-0.4-0.1-0.6-0.2c-0.2-0.1-0.4-0.2-0.5-0.4C5,66.9,5,66.7,5,66.5s0.1-0.5,0.3-0.8l2.4-4.7l1.9,1l0.6-1.2l-1.9-1L9.6,57.1z"
		/>
	<path d="M9.1,67.5c-0.1,0.6,0,1.2,0.2,1.8c0.2,0.6,0.5,1.1,0.9,1.5c0.4,0.5,0.9,0.8,1.5,1.1c0.6,0.3,1.2,0.5,1.8,0.5
		c0.6,0,1.2-0.1,1.7-0.3c0.5-0.2,1-0.5,1.5-1c0.5-0.4,0.8-1,1.1-1.6c0.3-0.6,0.5-1.3,0.5-1.9c0.1-0.6,0-1.2-0.2-1.8
		c-0.2-0.5-0.5-1-0.9-1.5s-0.9-0.8-1.5-1.1c-0.6-0.3-1.2-0.5-1.8-0.5c-0.6,0-1.2,0.1-1.7,0.3s-1.1,0.5-1.5,1c-0.5,0.4-0.8,1-1.2,1.6
		C9.4,66.2,9.2,66.8,9.1,67.5z M12.1,65.1c0.3-0.3,0.7-0.6,1-0.7c0.4-0.1,0.7-0.2,1.1-0.2c0.4,0,0.7,0.1,1.1,0.3
		c0.4,0.2,0.7,0.4,0.9,0.7c0.3,0.3,0.4,0.6,0.5,1c0.1,0.4,0.1,0.8,0.1,1.2s-0.2,0.9-0.4,1.4c-0.2,0.5-0.5,0.9-0.8,1.2
		c-0.3,0.3-0.7,0.6-1,0.7s-0.7,0.2-1.1,0.2c-0.4,0-0.8-0.1-1.1-0.3c-0.3-0.2-0.6-0.4-0.9-0.7c-0.2-0.3-0.4-0.6-0.5-1
		c-0.1-0.4-0.1-0.8-0.1-1.2c0-0.4,0.2-0.9,0.4-1.4C11.5,65.8,11.8,65.4,12.1,65.1z"/>
	<path d="M25.7,69.7l1.1,0.5l-2.3,5.1c-0.4,0.1-0.8,0.1-1.2,0c-0.4,0-0.8-0.1-1.1-0.3c-0.5-0.2-0.9-0.6-1-1.1
		c-0.1-0.5-0.1-1,0.2-1.6l2.3-5.2L21,65.9l-0.6,1.4l1.1,0.5l-1.8,4c-0.2,0.5-0.4,1-0.4,1.5c0,0.4,0,0.9,0.1,1.2s0.3,0.7,0.6,1
		c0.3,0.3,0.6,0.5,1.1,0.7c0.5,0.2,1,0.4,1.5,0.4c0.5,0,1,0,1.5-0.1l-0.3,0.8l2.4,1.1l0.6-1.4l-0.9-0.4l3.1-6.9l-2.7-1.2L25.7,69.7z
		"/>
	<path d="M35.6,69.2l-1.8,0.1l-0.9,2l-1.3-0.6l-0.5,1.2l1.3,0.6l-2,4.6c-0.2,0.5-0.4,1-0.4,1.4c-0.1,0.4,0,0.7,0.1,1
		s0.3,0.5,0.5,0.7c0.2,0.2,0.5,0.4,0.9,0.5c0.4,0.2,0.7,0.3,1.1,0.3c0.3,0,0.6,0.1,1,0l0.1-1.2c-0.2,0-0.5,0-0.7,0
		c-0.2,0-0.4-0.1-0.6-0.2c-0.2-0.1-0.4-0.2-0.5-0.4c-0.1-0.1-0.2-0.3-0.2-0.6s0.1-0.5,0.2-0.8l2.1-4.8l2,0.9l0.5-1.2l-2-0.8
		L35.6,69.2z"/>
	<path d="M48.3,80.3l0.6-1.4L48,78.6c-0.2-0.5-0.5-1-0.9-1.3c-0.4-0.4-0.9-0.7-1.4-0.9C45.1,76.1,44.5,76,44,76
		c-0.6,0-1.1,0.2-1.7,0.4c-0.5,0.2-1,0.6-1.4,1.1c-0.4,0.5-0.8,1-1,1.7c-0.3,0.7-0.4,1.3-0.4,1.9s0.1,1.2,0.3,1.8
		c0.2,0.5,0.5,1,0.9,1.4c0.4,0.4,0.9,0.8,1.5,1c0.4,0.2,0.8,0.3,1.2,0.3s0.8,0,1.2,0c0.4-0.1,0.7-0.2,1.1-0.4c0.4-0.2,0.7-0.4,1-0.7
		l-1-1.1c-0.4,0.4-0.9,0.6-1.4,0.7c-0.5,0.1-1,0-1.5-0.2c-0.4-0.1-0.7-0.3-0.9-0.6c-0.2-0.3-0.4-0.6-0.6-0.9C41,82,41,81.6,41,81.1
		c0-0.4,0.1-0.9,0.3-1.4c0.2-0.5,0.4-0.9,0.7-1.2c0.3-0.3,0.6-0.6,0.9-0.8c0.3-0.2,0.7-0.3,1.1-0.3c0.4,0,0.7,0,1.1,0.2
		c0.5,0.2,0.8,0.4,1.1,0.8s0.4,0.7,0.5,1.2L48.3,80.3z"/>
	<path d="M56.4,86c0.1-0.2,0.2-0.4,0.2-0.6c0.1-0.2,0.1-0.4,0.2-0.7c0.1-0.4,0.2-0.9,0.2-1.4c0-0.5,0-0.9-0.2-1.3
		c-0.1-0.4-0.4-0.8-0.8-1.2s-0.9-0.7-1.5-0.9c-0.7-0.3-1.3-0.4-1.9-0.3c-0.6,0-1.1,0.2-1.6,0.5c-0.5,0.3-0.9,0.6-1.3,1.1
		c-0.4,0.5-0.7,1-0.9,1.6c-0.3,0.7-0.4,1.4-0.5,2.1c0,0.6,0.1,1.2,0.3,1.7c0.2,0.5,0.5,1,0.9,1.3s0.9,0.7,1.5,0.9
		c0.6,0.2,1.2,0.4,1.9,0.4c0.6,0,1.3,0,2-0.2l-0.2-1.3c-0.6,0.1-1.1,0.1-1.5,0.1c-0.5,0-0.9-0.1-1.4-0.3c-0.6-0.2-1-0.5-1.4-1
		c-0.3-0.4-0.5-1-0.5-1.6c0-0.2,0-0.4,0.1-0.6c0-0.2,0.1-0.4,0.2-0.7L56.4,86z M54.8,81.7c0.2,0.2,0.4,0.4,0.5,0.7
		c0.1,0.3,0.1,0.5,0.1,0.8c0,0.3-0.1,0.6-0.2,0.9l-4.4-1.7c0.2-0.3,0.4-0.6,0.6-0.8c0.2-0.2,0.5-0.4,0.7-0.5
		c0.3-0.1,0.5-0.2,0.8-0.2s0.6,0.1,1,0.2C54.3,81.3,54.6,81.5,54.8,81.7z"/>
	<path d="M64.2,97.8l4.1,1.4l0.5-1.4l-1.3-0.5l3.9-11.1l-1.5-0.5l-0.1,0.4c-0.2-0.3-0.5-0.6-0.8-0.8c-0.3-0.2-0.7-0.4-1.1-0.5
		c-0.6-0.2-1.2-0.3-1.8-0.3c-0.6,0-1.1,0.2-1.6,0.4c-0.5,0.3-0.9,0.6-1.3,1.1s-0.7,1-0.9,1.7c-0.3,0.7-0.4,1.4-0.4,2.1
		c0,0.6,0.1,1.2,0.4,1.7s0.6,1,1,1.3c0.4,0.4,0.9,0.7,1.5,0.9c0.5,0.2,0.9,0.2,1.3,0.2c0.4,0,0.8-0.1,1.2-0.3l-1.1,3.1l-1.2-0.4
		L64.2,97.8z M64.2,91.9c-0.3-0.3-0.5-0.6-0.6-0.9s-0.2-0.8-0.2-1.2s0.1-0.9,0.3-1.5c0.2-0.5,0.4-0.9,0.7-1.2s0.6-0.6,0.9-0.8
		c0.3-0.2,0.7-0.3,1.1-0.3c0.4,0,0.7,0,1.1,0.2c0.4,0.1,0.7,0.3,1,0.5s0.6,0.5,0.8,0.8l-1.7,4.9c-0.3,0.1-0.6,0.2-1,0.3
		c-0.4,0-0.8,0-1.3-0.2C64.8,92.4,64.5,92.2,64.2,91.9z"/>
	<path d="M78.2,90.2l1.2,0.4l-1.7,5.3c-0.4,0.1-0.8,0.2-1.2,0.2s-0.8-0.1-1.1-0.2c-0.6-0.2-1-0.5-1.2-0.9c-0.2-0.4-0.2-1,0-1.7
		l1.8-5.4l-2.8-0.9l-0.5,1.4l1.2,0.4l-1.4,4.1c-0.2,0.6-0.3,1.1-0.3,1.5s0.1,0.8,0.2,1.2c0.2,0.3,0.4,0.6,0.7,0.9
		c0.3,0.2,0.7,0.4,1.1,0.6c0.5,0.2,1,0.3,1.6,0.2c0.5,0,1-0.1,1.5-0.3L77,97.8l2.5,0.8l0.5-1.4l-1-0.3l2.4-7.2l-2.8-0.9L78.2,90.2z"
		/>
	<path d="M90.9,97.6c0.1-0.2,0.1-0.4,0.2-0.6s0.1-0.4,0.1-0.7c0.1-0.5,0.1-0.9,0.1-1.4c0-0.5-0.1-0.9-0.3-1.3
		c-0.2-0.4-0.5-0.8-0.8-1.1c-0.4-0.3-0.9-0.6-1.6-0.8c-0.7-0.2-1.3-0.3-1.9-0.2c-0.6,0.1-1.1,0.3-1.6,0.6s-0.9,0.7-1.2,1.2
		c-0.3,0.5-0.6,1.1-0.8,1.7c-0.2,0.8-0.3,1.5-0.3,2.1c0,0.6,0.2,1.2,0.4,1.7c0.2,0.5,0.6,0.9,1,1.3c0.4,0.4,1,0.6,1.5,0.8
		c0.6,0.2,1.3,0.3,1.9,0.3s1.3-0.1,2-0.3l-0.3-1.3c-0.6,0.1-1.1,0.2-1.5,0.2c-0.5,0-0.9-0.1-1.4-0.2c-0.6-0.2-1-0.5-1.4-0.9
		c-0.4-0.4-0.6-0.9-0.6-1.6c0-0.2,0-0.4,0-0.6c0-0.2,0.1-0.4,0.2-0.7L90.9,97.6z M89.1,93.4c0.2,0.2,0.4,0.4,0.5,0.7
		c0.1,0.3,0.2,0.5,0.2,0.8c0,0.3,0,0.6-0.1,0.9l-4.5-1.4c0.2-0.3,0.3-0.6,0.5-0.9c0.2-0.2,0.4-0.4,0.7-0.6s0.5-0.2,0.8-0.2
		c0.3,0,0.6,0,1,0.1C88.5,93.1,88.8,93.3,89.1,93.4z"/>
	<path d="M96.9,96l0.7,0.2l0.8,8.2l1.6,0.4l5-6.6l0.8,0.2L106,97l-2.8-0.8l-0.4,1.5l0.5,0.1l-3.8,5.5l-0.5-6.6l0.8,0.2l0.4-1.5
		l-3-0.8L96.9,96z"/>
	<path d="M105.7,103.7c0.1,0.6,0.2,1.2,0.5,1.7c0.3,0.5,0.7,1,1.1,1.3c0.5,0.4,1.1,0.6,1.7,0.8c0.7,0.2,1.3,0.2,1.9,0.1
		c0.6-0.1,1.1-0.3,1.6-0.6c0.5-0.3,0.9-0.7,1.3-1.3c0.4-0.5,0.6-1.1,0.8-1.8c0.2-0.7,0.2-1.4,0.2-2c-0.1-0.6-0.2-1.2-0.5-1.7
		c-0.3-0.5-0.7-0.9-1.1-1.3c-0.5-0.4-1.1-0.6-1.7-0.8c-0.6-0.2-1.3-0.2-1.9-0.1c-0.6,0.1-1.1,0.3-1.6,0.6c-0.5,0.3-0.9,0.7-1.3,1.2
		c-0.4,0.5-0.6,1.1-0.8,1.8C105.7,102.4,105.6,103,105.7,103.7z M108.1,100.7c0.3-0.4,0.5-0.7,0.9-0.9c0.3-0.2,0.7-0.3,1-0.4
		c0.4-0.1,0.7,0,1.1,0.1c0.4,0.1,0.7,0.3,1,0.5c0.3,0.2,0.5,0.5,0.7,0.9c0.2,0.3,0.3,0.7,0.3,1.2c0,0.5,0,0.9-0.2,1.5
		c-0.1,0.5-0.3,1-0.6,1.3c-0.2,0.4-0.5,0.7-0.9,0.9c-0.3,0.2-0.7,0.4-1.1,0.4c-0.4,0.1-0.8,0-1.2-0.1c-0.4-0.1-0.7-0.3-1-0.5
		c-0.3-0.2-0.5-0.5-0.7-0.9c-0.2-0.4-0.3-0.8-0.3-1.2c0-0.4,0-0.9,0.1-1.4C107.7,101.6,107.9,101.1,108.1,100.7z"/>
	<path d="M122.3,102.7l1.2,0.3l-1.3,5.4c-0.4,0.1-0.8,0.2-1.2,0.3s-0.8,0-1.1-0.1c-0.6-0.1-1-0.4-1.2-0.8s-0.3-1-0.1-1.7l1.3-5.5
		l-2.9-0.7l-0.3,1.5l1.2,0.3l-1,4.2c-0.1,0.6-0.2,1.1-0.1,1.5c0,0.4,0.2,0.8,0.3,1.2s0.4,0.6,0.8,0.8c0.3,0.2,0.7,0.4,1.2,0.5
		c0.5,0.1,1.1,0.2,1.6,0.1s1-0.2,1.5-0.4l-0.2,0.8l2.6,0.6l0.3-1.5l-1-0.2l1.8-7.4l-2.9-0.7L122.3,102.7z"/>
	<path d="M133.4,106.1l1.8,0.4l0.3-1.5l-0.8-0.2c-0.3-0.5-0.6-0.9-1-1.2c-0.4-0.3-0.9-0.5-1.5-0.6c-0.5-0.1-0.9-0.1-1.4-0.1
		c-0.4,0-0.8,0.2-1.1,0.3c-0.3,0.2-0.6,0.4-0.8,0.7s-0.4,0.6-0.4,1c-0.1,0.6-0.1,1.1,0.2,1.5c0.3,0.5,0.7,0.9,1.3,1.3l1.6,1
		c0.4,0.3,0.7,0.5,0.8,0.7c0.1,0.2,0.2,0.5,0.1,0.8c0,0.2-0.1,0.3-0.2,0.5s-0.3,0.2-0.5,0.3c-0.2,0.1-0.4,0.1-0.6,0.1
		c-0.2,0-0.4,0-0.7-0.1c-0.2,0-0.4-0.1-0.7-0.2c-0.2-0.1-0.4-0.2-0.5-0.4c-0.2-0.1-0.3-0.3-0.3-0.5c-0.1-0.2-0.1-0.4,0-0.7l-1.8-0.4
		l-0.3,1.5l0.9,0.2c0.2,0.4,0.4,0.8,0.8,1.1c0.4,0.3,0.9,0.6,1.6,0.7c0.5,0.1,1,0.1,1.4,0.1c0.4,0,0.8-0.1,1.2-0.3
		c0.3-0.2,0.6-0.4,0.9-0.7c0.2-0.3,0.4-0.6,0.5-1c0.1-0.6,0.1-1.1-0.2-1.6c-0.2-0.5-0.7-0.9-1.4-1.4l-1.6-1
		c-0.4-0.2-0.7-0.5-0.8-0.7c-0.1-0.2-0.2-0.5-0.1-0.8c0-0.2,0.1-0.3,0.2-0.4c0.1-0.1,0.2-0.2,0.4-0.3s0.3-0.1,0.5-0.1s0.4,0,0.6,0.1
		c0.2,0,0.4,0.1,0.6,0.2c0.2,0.1,0.4,0.2,0.5,0.4s0.3,0.3,0.3,0.5C133.4,105.7,133.4,105.9,133.4,106.1L133.4,106.1z"/>
	<path d="M144.5,115.1l2.6,0.5l0.3-1.5l-1-0.2l0.9-4.5c0.1-0.6,0.1-1.1,0-1.5s-0.2-0.8-0.5-1.1c-0.2-0.3-0.6-0.6-0.9-0.8
		s-0.8-0.4-1.4-0.5c-0.3-0.1-0.6-0.1-0.9-0.1c-0.3,0-0.6,0-0.9,0c-0.3,0-0.6,0.1-0.9,0.1s-0.5,0.2-0.8,0.3l0.3,1.2
		c0.1-0.1,0.3-0.1,0.5-0.2s0.4-0.1,0.6-0.1c0.2,0,0.5,0,0.7,0c0.3,0,0.5,0,0.8,0.1c0.3,0.1,0.5,0.1,0.8,0.3c0.2,0.1,0.4,0.3,0.5,0.5
		s0.2,0.4,0.3,0.7s0,0.5,0,0.9l-0.1,0.7c-0.2-0.1-0.5-0.2-0.7-0.3c-0.3-0.1-0.6-0.2-1-0.2c-0.3,0-0.5-0.1-0.8-0.1
		c-0.3,0-0.6,0-0.9,0c-0.3,0-0.6,0.1-0.9,0.2c-0.3,0.1-0.5,0.2-0.8,0.4c-0.2,0.2-0.4,0.4-0.6,0.7s-0.3,0.6-0.4,1
		c-0.1,0.4-0.1,0.7,0,1.1c0.1,0.3,0.2,0.7,0.5,1c0.2,0.3,0.5,0.5,0.8,0.7c0.3,0.2,0.7,0.4,1.2,0.4c0.5,0.1,1,0.1,1.5,0
		c0.4-0.1,0.9-0.3,1.3-0.6L144.5,115.1z M141.8,113.4c-0.2-0.1-0.4-0.2-0.5-0.4c-0.1-0.1-0.2-0.3-0.3-0.5c-0.1-0.2-0.1-0.4,0-0.6
		c0-0.3,0.1-0.5,0.3-0.6c0.1-0.2,0.3-0.3,0.5-0.4s0.5-0.2,0.7-0.2c0.3,0,0.6,0,0.9,0.1l1.9,0.4l-0.4,2c-0.1,0.1-0.3,0.2-0.5,0.3
		s-0.4,0.2-0.6,0.2s-0.4,0.1-0.6,0.1c-0.2,0-0.4,0-0.7,0C142.2,113.6,142,113.5,141.8,113.4z"/>
	<path d="M149.5,108.4l0.7,0.1l1.6,8.1l1.6,0.3l4.3-7.1l0.8,0.1l0.3-1.5l-2.8-0.5l-0.3,1.5l0.5,0.1l-3.2,5.8l-1.1-6.6l0.8,0.1
		l0.3-1.5l-3.1-0.5L149.5,108.4z"/>
	<path d="M167.1,114.5c0-0.2,0.1-0.4,0.1-0.7c0-0.2,0-0.5,0-0.7c0-0.5,0-0.9-0.1-1.4c-0.1-0.5-0.2-0.9-0.5-1.3c-0.2-0.4-0.6-0.7-1-1
		c-0.4-0.3-1-0.5-1.7-0.6c-0.7-0.1-1.3-0.1-1.9,0.1c-0.6,0.2-1.1,0.4-1.5,0.8c-0.4,0.4-0.8,0.8-1,1.4c-0.3,0.5-0.5,1.1-0.5,1.8
		c-0.1,0.8-0.1,1.5,0,2.1c0.1,0.6,0.3,1.2,0.6,1.6s0.7,0.8,1.2,1.1c0.5,0.3,1,0.5,1.6,0.6c0.6,0.1,1.3,0.1,1.9,0
		c0.6-0.1,1.3-0.3,1.9-0.6l-0.5-1.2c-0.5,0.2-1,0.3-1.5,0.4c-0.5,0.1-0.9,0.1-1.4,0c-0.6-0.1-1.1-0.3-1.5-0.7s-0.7-0.9-0.8-1.5
		c0-0.2-0.1-0.4-0.1-0.6c0-0.2,0-0.5,0.1-0.7L167.1,114.5z M164.6,110.7c0.3,0.2,0.5,0.4,0.6,0.6c0.1,0.2,0.2,0.5,0.3,0.8
		c0,0.3,0,0.6,0,1l-4.7-0.7c0.1-0.4,0.3-0.7,0.4-0.9c0.2-0.3,0.4-0.5,0.6-0.7c0.2-0.2,0.5-0.3,0.8-0.4c0.3-0.1,0.6-0.1,1,0
		C164.1,110.4,164.4,110.5,164.6,110.7z"/>
	<path d="M168.4,119.1l6.7,0.9l0.4-2.9l-1.7-0.2l-0.2,1.5l-3.1-0.4l5.5-6l0.1-1l-6.5-0.9l-0.4,2.6l1.6,0.2l0.2-1.3l2.9,0.4l-5.5,6
		L168.4,119.1z"/>
	<path d="M184.6,109.1l-1.7,0.6l-0.3,2.2l-1.5-0.2l-0.2,1.3l1.4,0.2l-0.6,5c-0.1,0.6-0.1,1.1,0,1.4c0.1,0.4,0.2,0.7,0.3,1
		c0.2,0.3,0.4,0.4,0.7,0.6c0.3,0.1,0.6,0.2,1,0.3c0.4,0,0.8,0,1.1,0s0.6-0.1,0.9-0.2l-0.2-1.1c-0.2,0.1-0.4,0.1-0.6,0.2
		s-0.4,0-0.7,0c-0.2,0-0.4-0.1-0.6-0.2c-0.2-0.1-0.3-0.3-0.3-0.5s-0.1-0.5,0-0.9l0.6-5.2l2.1,0.2l0.2-1.3l-2.1-0.2L184.6,109.1z"/>
	<path d="M187.7,118.9c0.2,0.6,0.4,1.1,0.8,1.6s0.8,0.8,1.3,1.1s1.1,0.5,1.8,0.5c0.7,0.1,1.3,0,1.9-0.2c0.6-0.2,1.1-0.5,1.5-0.9
		c0.4-0.4,0.8-0.9,1.1-1.4c0.3-0.6,0.5-1.2,0.5-1.9c0.1-0.7,0-1.4-0.1-2c-0.2-0.6-0.4-1.1-0.8-1.6c-0.4-0.5-0.8-0.8-1.3-1.1
		c-0.5-0.3-1.1-0.5-1.8-0.5c-0.7-0.1-1.3,0-1.9,0.2c-0.6,0.2-1.1,0.5-1.5,0.8s-0.8,0.9-1.1,1.4c-0.3,0.6-0.5,1.2-0.5,1.9
		C187.5,117.7,187.5,118.3,187.7,118.9z M189.7,115.7c0.2-0.4,0.4-0.7,0.7-1c0.3-0.3,0.6-0.4,1-0.6c0.4-0.1,0.7-0.1,1.1-0.1
		c0.4,0,0.8,0.1,1.1,0.3s0.6,0.4,0.8,0.7c0.2,0.3,0.4,0.7,0.5,1.1c0.1,0.4,0.1,0.9,0.1,1.5c-0.1,0.5-0.2,1-0.4,1.4s-0.4,0.7-0.7,1
		c-0.3,0.3-0.6,0.5-1,0.6c-0.4,0.1-0.7,0.2-1.1,0.1c-0.4,0-0.7-0.2-1.1-0.3s-0.6-0.5-0.8-0.8c-0.2-0.3-0.4-0.7-0.5-1.1
		c-0.1-0.4-0.1-0.9-0.1-1.4C189.3,116.6,189.5,116.1,189.7,115.7z"/>
	<path d="M204,115.4l1.2,0.1l-0.4,5.5c-0.4,0.2-0.8,0.3-1.2,0.4c-0.4,0.1-0.8,0.1-1.1,0.1c-0.6,0-1-0.3-1.3-0.6
		c-0.3-0.4-0.4-0.9-0.4-1.6l0.4-5.7l-2.9-0.2l-0.1,1.5l1.2,0.1l-0.3,4.3c0,0.6,0,1.1,0.1,1.5c0.1,0.4,0.3,0.8,0.5,1.1
		s0.5,0.5,0.9,0.7c0.4,0.2,0.8,0.3,1.2,0.3c0.5,0,1.1,0,1.6-0.1s1-0.3,1.4-0.6l-0.1,0.8l2.6,0.2l0.1-1.5l-1-0.1l0.6-7.6l-2.9-0.2
		L204,115.4z"/>
	<path d="M210.1,115.8l1.3,0.1l-0.5,8.1c0,0.7-0.2,1.2-0.5,1.6c-0.3,0.4-0.7,0.6-1.2,0.7l0.1,1.2c0.5,0,0.9,0,1.3-0.2
		c0.4-0.1,0.7-0.4,1-0.6c0.3-0.3,0.5-0.6,0.6-1s0.3-0.9,0.3-1.4l0.6-9.8l-2.9-0.2L210.1,115.8z M211.5,111.6c0,0.1,0.1,0.3,0.2,0.4
		c0.1,0.1,0.2,0.2,0.3,0.2c0.1,0.1,0.3,0.1,0.4,0.1c0.1,0,0.3,0,0.4-0.1s0.2-0.1,0.3-0.2s0.2-0.2,0.2-0.3c0.1-0.1,0.1-0.3,0.1-0.4
		c0-0.1,0-0.3-0.1-0.4c0-0.1-0.1-0.2-0.2-0.3c-0.1-0.1-0.2-0.2-0.3-0.2c-0.1-0.1-0.3-0.1-0.4-0.1c-0.1,0-0.3,0-0.4,0.1
		c-0.1,0-0.2,0.1-0.3,0.2c-0.1,0.1-0.2,0.2-0.2,0.3c-0.1,0.1-0.1,0.2-0.1,0.4C211.5,111.3,211.5,111.5,211.5,111.6z"/>
	<path d="M215.4,121.2c0.2,0.6,0.5,1.1,0.9,1.6s0.8,0.8,1.4,1.1c0.5,0.3,1.2,0.4,1.8,0.4c0.7,0,1.3-0.1,1.9-0.3s1.1-0.5,1.5-0.9
		s0.8-0.9,1-1.5c0.3-0.6,0.4-1.2,0.4-1.9c0-0.7,0-1.4-0.2-2c-0.2-0.6-0.5-1.1-0.9-1.6c-0.4-0.4-0.8-0.8-1.4-1s-1.2-0.4-1.8-0.4
		c-0.7,0-1.3,0.1-1.9,0.3c-0.6,0.2-1.1,0.5-1.5,0.9c-0.4,0.4-0.8,0.9-1,1.5s-0.4,1.2-0.4,2C215.1,119.9,215.2,120.6,215.4,121.2z
		 M217.2,117.8c0.2-0.4,0.4-0.8,0.7-1c0.3-0.3,0.6-0.5,0.9-0.6c0.3-0.1,0.7-0.2,1.1-0.2c0.4,0,0.8,0.1,1.1,0.3
		c0.3,0.2,0.6,0.4,0.9,0.7s0.4,0.7,0.6,1.1c0.1,0.4,0.2,0.9,0.1,1.5c0,0.5-0.1,1-0.3,1.4c-0.2,0.4-0.4,0.8-0.7,1
		c-0.3,0.3-0.6,0.5-0.9,0.6c-0.4,0.1-0.7,0.2-1.1,0.2c-0.4,0-0.7-0.1-1.1-0.3c-0.3-0.2-0.6-0.4-0.9-0.7c-0.2-0.3-0.4-0.7-0.6-1.1
		c-0.1-0.4-0.2-0.9-0.2-1.4C216.9,118.7,217,118.3,217.2,117.8z"/>
	<path d="M231.5,116.8l1.2,0l-0.1,5.5c-0.4,0.2-0.7,0.4-1.1,0.5c-0.4,0.1-0.8,0.2-1.1,0.2c-0.6,0-1.1-0.2-1.4-0.6
		c-0.3-0.4-0.5-0.9-0.4-1.6l0.2-5.7l-2.9-0.1l0,1.5l1.2,0l-0.1,4.3c0,0.6,0,1.1,0.2,1.5s0.3,0.8,0.6,1.1s0.6,0.5,0.9,0.6
		c0.4,0.1,0.8,0.2,1.2,0.2c0.6,0,1.1-0.1,1.6-0.2c0.5-0.2,0.9-0.4,1.4-0.7l0,0.8l2.7,0.1l0-1.5l-1,0l0.2-7.6l-2.9-0.1L231.5,116.8z"
		/>
	<path d="M244.4,115.5c-0.3,0-0.5,0-0.8,0s-0.6,0-0.9,0c-0.2,0-0.4,0-0.6,0.1c-0.2,0.1-0.4,0.2-0.5,0.3c-0.2,0.1-0.3,0.3-0.4,0.4
		s-0.3,0.3-0.4,0.5l0-1.3l-2.9,0l0,1.5l1.3,0L239,123l-1.3,0l0,1.5l4.5,0.1l0-1.5l-1.5,0l0.1-4.4c0.1-0.3,0.2-0.6,0.3-0.8
		c0.1-0.2,0.3-0.4,0.5-0.6s0.4-0.3,0.6-0.3c0.2-0.1,0.4-0.1,0.6-0.1l0,0.6l1.7,0L244.4,115.5z"/>
	<path d="M251.3,117.9l1.8,0l0-1.5l-0.9,0c-0.4-0.4-0.8-0.7-1.2-0.9c-0.4-0.2-1-0.3-1.6-0.2c-0.5,0-1,0.1-1.3,0.2
		c-0.4,0.1-0.7,0.3-1,0.6c-0.3,0.2-0.5,0.5-0.6,0.9c-0.1,0.3-0.2,0.7-0.2,1.1c0,0.6,0.2,1.1,0.5,1.5s0.9,0.7,1.6,0.9l1.8,0.6
		c0.5,0.2,0.8,0.3,1,0.5c0.2,0.2,0.3,0.4,0.3,0.7c0,0.2,0,0.4-0.1,0.5c-0.1,0.2-0.2,0.3-0.4,0.4s-0.3,0.2-0.6,0.3
		c-0.2,0.1-0.4,0.1-0.7,0.1c-0.2,0-0.5,0-0.7-0.1s-0.4-0.1-0.6-0.2s-0.3-0.3-0.4-0.4s-0.2-0.4-0.2-0.6l-1.8,0l0,1.5l0.9,0
		c0.2,0.4,0.6,0.7,1,0.9c0.4,0.2,1,0.3,1.7,0.3c0.5,0,1-0.1,1.4-0.2c0.4-0.1,0.8-0.3,1.1-0.6s0.5-0.5,0.7-0.9
		c0.2-0.3,0.2-0.7,0.2-1.1c0-0.6-0.2-1.1-0.5-1.5s-0.9-0.8-1.7-1l-1.8-0.6c-0.4-0.1-0.7-0.3-0.9-0.5s-0.3-0.4-0.3-0.7
		c0-0.2,0-0.3,0.1-0.5c0.1-0.1,0.2-0.3,0.3-0.4c0.1-0.1,0.3-0.2,0.5-0.2s0.4-0.1,0.6-0.1c0.2,0,0.4,0,0.7,0.1s0.4,0.1,0.6,0.2
		s0.3,0.2,0.5,0.4S251.3,117.7,251.3,117.9L251.3,117.9z"/>
	<path d="M257.8,116.9l0.7,0l3.2,7.6l1.6,0l2.7-7.8l0.8,0l0-1.5l-2.9,0.1l0,1.5l0.6,0l-2,6.3l-2.4-6.2l0.9,0l0-1.5l-3.1,0.1
		L257.8,116.9z"/>
	<path d="M268.6,121.6c0.3,0.6,0.6,1.1,1,1.5c0.4,0.4,0.9,0.7,1.5,0.9c0.6,0.2,1.2,0.3,1.9,0.3c0.7,0,1.3-0.2,1.8-0.4
		c0.5-0.3,1-0.6,1.4-1.1c0.4-0.4,0.7-1,0.9-1.6c0.2-0.6,0.3-1.3,0.2-2c0-0.7-0.2-1.4-0.4-2c-0.3-0.6-0.6-1.1-1-1.5
		c-0.4-0.4-0.9-0.7-1.5-0.9s-1.2-0.3-1.9-0.3c-0.7,0-1.3,0.2-1.8,0.4c-0.5,0.3-1,0.6-1.4,1s-0.7,1-0.9,1.6c-0.2,0.6-0.3,1.3-0.2,2
		C268.2,120.3,268.3,121,268.6,121.6z M270,118.1c0.1-0.4,0.3-0.8,0.6-1.1s0.5-0.5,0.9-0.7s0.7-0.3,1.1-0.3c0.4,0,0.8,0,1.1,0.2
		c0.4,0.1,0.7,0.3,0.9,0.6c0.3,0.3,0.5,0.6,0.7,1c0.2,0.4,0.3,0.9,0.3,1.5c0,0.5,0,1-0.1,1.4c-0.1,0.4-0.3,0.8-0.6,1.1
		c-0.2,0.3-0.5,0.6-0.9,0.7c-0.3,0.2-0.7,0.3-1.1,0.3c-0.4,0-0.8,0-1.1-0.2c-0.4-0.1-0.7-0.4-0.9-0.6c-0.3-0.3-0.5-0.6-0.7-1
		s-0.3-0.9-0.3-1.4C269.8,119,269.9,118.5,270,118.1z"/>
	<path d="M284.1,115.7l1.2-0.1l0.4,5.5c-0.3,0.3-0.7,0.5-1.1,0.6s-0.8,0.2-1.1,0.3c-0.6,0-1.1-0.1-1.4-0.4c-0.3-0.3-0.5-0.8-0.6-1.5
		l-0.4-5.7l-2.9,0.2l0.1,1.5l1.2-0.1l0.3,4.3c0,0.6,0.1,1.1,0.3,1.5c0.2,0.4,0.4,0.8,0.7,1c0.3,0.3,0.6,0.4,1,0.5
		c0.4,0.1,0.8,0.1,1.3,0.1c0.5,0,1.1-0.2,1.5-0.4s0.9-0.5,1.3-0.8l0.1,0.8l2.6-0.2l-0.1-1.5l-1,0.1l-0.5-7.6l-2.9,0.2L284.1,115.7z"
		/>
	<path d="M289.9,110.6l1.3-0.1l0.9,10.6l-1.3,0.1l0.1,1.5l4.3-0.4l-0.1-1.5l-1.4,0.1l-1-12.1l-2.9,0.3L289.9,110.6z"/>
	<path d="M301.6,114.1l1.2-0.1l0.6,5.5c-0.3,0.3-0.7,0.5-1.1,0.6c-0.4,0.2-0.7,0.3-1.1,0.3c-0.6,0.1-1.1-0.1-1.4-0.4
		s-0.6-0.8-0.6-1.5l-0.6-5.6l-2.9,0.3l0.2,1.5l1.2-0.1l0.4,4.3c0.1,0.6,0.2,1.1,0.4,1.5s0.4,0.7,0.7,1c0.3,0.3,0.6,0.4,1,0.5
		c0.4,0.1,0.8,0.1,1.3,0.1c0.5-0.1,1.1-0.2,1.5-0.4c0.5-0.2,0.9-0.5,1.3-0.9l0.1,0.8l2.6-0.3l-0.2-1.5l-1,0.1l-0.8-7.6l-2.9,0.3
		L301.6,114.1z"/>
	<path d="M316.9,113.3l1.8-0.2l-0.2-1.5l-0.8,0.1c-0.4-0.4-0.8-0.6-1.3-0.8c-0.5-0.1-1-0.1-1.7-0.1c-0.5,0.1-0.9,0.2-1.3,0.4
		c-0.4,0.2-0.7,0.4-0.9,0.7c-0.2,0.3-0.4,0.6-0.5,0.9s-0.1,0.7-0.1,1.1c0.1,0.6,0.3,1,0.7,1.4c0.4,0.3,1,0.6,1.7,0.8l1.8,0.4
		c0.5,0.1,0.8,0.2,1,0.4s0.3,0.4,0.4,0.7c0,0.2,0,0.4-0.1,0.5c-0.1,0.2-0.2,0.3-0.3,0.4c-0.1,0.1-0.3,0.2-0.5,0.3
		c-0.2,0.1-0.4,0.1-0.6,0.2c-0.2,0-0.5,0-0.7,0s-0.4-0.1-0.6-0.2c-0.2-0.1-0.4-0.2-0.5-0.4c-0.1-0.2-0.2-0.4-0.2-0.6l-1.8,0.2
		l0.2,1.5l0.9-0.1c0.3,0.3,0.7,0.6,1.1,0.8c0.5,0.2,1.1,0.2,1.8,0.1c0.5-0.1,1-0.2,1.4-0.4c0.4-0.2,0.7-0.4,1-0.7
		c0.3-0.3,0.5-0.6,0.6-0.9c0.1-0.4,0.1-0.7,0.1-1.1c-0.1-0.6-0.3-1.1-0.7-1.5s-1-0.7-1.8-0.8l-1.8-0.4c-0.4-0.1-0.8-0.2-1-0.4
		c-0.2-0.2-0.3-0.4-0.4-0.7c0-0.2,0-0.3,0.1-0.5c0.1-0.2,0.2-0.3,0.3-0.4s0.3-0.2,0.5-0.3c0.2-0.1,0.4-0.1,0.6-0.2
		c0.2,0,0.4,0,0.7,0c0.2,0,0.4,0.1,0.6,0.2s0.4,0.2,0.5,0.4C316.8,112.8,316.9,113,316.9,113.3L316.9,113.3z"/>
	<path d="M326.5,118.6l2.6-0.4l-0.2-1.5l-1,0.1l-0.7-4.5c-0.1-0.6-0.2-1-0.4-1.4s-0.5-0.7-0.8-0.9c-0.3-0.2-0.7-0.4-1.1-0.4
		s-0.9-0.1-1.4,0c-0.3,0-0.6,0.1-0.9,0.2c-0.3,0.1-0.6,0.2-0.8,0.3c-0.3,0.1-0.5,0.3-0.8,0.4c-0.2,0.2-0.5,0.3-0.6,0.5l0.7,1
		c0.1-0.1,0.3-0.2,0.4-0.3c0.2-0.1,0.4-0.2,0.6-0.3c0.2-0.1,0.4-0.2,0.7-0.3c0.2-0.1,0.5-0.1,0.8-0.2c0.3,0,0.6,0,0.8,0
		c0.2,0,0.5,0.1,0.7,0.3s0.3,0.3,0.5,0.5c0.1,0.2,0.2,0.5,0.3,0.8l0.1,0.7c-0.2,0-0.5,0-0.8,0s-0.6,0.1-1.1,0.1
		c-0.3,0-0.5,0.1-0.8,0.2s-0.6,0.2-0.8,0.3c-0.3,0.1-0.5,0.3-0.7,0.5c-0.2,0.2-0.4,0.4-0.6,0.6s-0.3,0.5-0.3,0.8
		c-0.1,0.3-0.1,0.7,0,1c0.1,0.4,0.2,0.7,0.4,1s0.4,0.5,0.7,0.7c0.3,0.2,0.6,0.3,1,0.4c0.4,0.1,0.8,0.1,1.2,0c0.5-0.1,1-0.2,1.4-0.5
		s0.7-0.6,1-0.9L326.5,118.6z M323.4,117.9c-0.2,0-0.4-0.1-0.6-0.2c-0.2-0.1-0.3-0.2-0.4-0.4c-0.1-0.2-0.2-0.4-0.2-0.6
		c0-0.3,0-0.5,0.1-0.7c0.1-0.2,0.2-0.4,0.4-0.6s0.4-0.3,0.6-0.4c0.2-0.1,0.5-0.2,0.8-0.2l1.9-0.3l0.3,2c-0.1,0.1-0.2,0.3-0.4,0.4
		c-0.1,0.1-0.3,0.3-0.5,0.4c-0.2,0.1-0.4,0.2-0.6,0.3c-0.2,0.1-0.4,0.1-0.6,0.2C323.9,117.9,323.7,117.9,323.4,117.9z"/>
	<path d="M329,110.6l0.7-0.1l4.2,7.1l1.6-0.3l1.7-8.1l0.8-0.1l-0.2-1.5l-2.8,0.5l0.2,1.5l0.5-0.1l-1.1,6.5l-3.2-5.8l0.8-0.1
		l-0.2-1.5l-3.1,0.5L329,110.6z"/>
	<path d="M340.3,113.8c0.3,0.5,0.7,1,1.2,1.3c0.5,0.3,1,0.6,1.6,0.7s1.2,0.1,1.9,0c0.7-0.1,1.2-0.4,1.8-0.7c0.5-0.3,0.9-0.7,1.2-1.2
		c0.3-0.5,0.5-1.1,0.6-1.7c0.1-0.6,0.1-1.3,0-2c-0.1-0.7-0.4-1.3-0.7-1.9c-0.3-0.5-0.7-1-1.2-1.3c-0.5-0.3-1-0.6-1.6-0.7
		c-0.6-0.1-1.2-0.1-1.9,0c-0.7,0.1-1.2,0.3-1.7,0.7s-0.9,0.7-1.2,1.2s-0.5,1-0.7,1.7s-0.1,1.3,0,2
		C339.7,112.6,339.9,113.2,340.3,113.8z M341.2,110.1c0.1-0.4,0.2-0.8,0.4-1.2c0.2-0.3,0.5-0.6,0.8-0.8c0.3-0.2,0.7-0.3,1-0.4
		c0.4-0.1,0.8-0.1,1.2,0s0.7,0.2,1,0.5c0.3,0.2,0.6,0.6,0.8,0.9c0.2,0.4,0.4,0.9,0.5,1.4c0.1,0.5,0.1,1,0,1.4s-0.2,0.8-0.4,1.2
		s-0.5,0.6-0.8,0.8c-0.3,0.2-0.7,0.4-1.1,0.4c-0.4,0.1-0.8,0.1-1.1,0c-0.4-0.1-0.7-0.3-1-0.5c-0.3-0.2-0.6-0.6-0.8-0.9
		s-0.4-0.8-0.5-1.4C341.2,111.1,341.2,110.6,341.2,110.1z"/>
	<path d="M349.5,107l1.3-0.3l1.2,6l-1.3,0.3l0.3,1.5l4.2-0.9l-0.3-1.5l-1.3,0.3l-1.5-7.4l-2.9,0.6L349.5,107z M349.8,102.5
		c0.1,0.1,0.2,0.2,0.3,0.3s0.3,0.1,0.4,0.2c0.2,0,0.3,0,0.5,0c0.1,0,0.3-0.1,0.4-0.2c0.1-0.1,0.2-0.2,0.3-0.3s0.1-0.3,0.2-0.4
		c0-0.1,0-0.3,0-0.5c0-0.1-0.1-0.3-0.2-0.4c-0.1-0.1-0.2-0.2-0.3-0.3c-0.1-0.1-0.3-0.1-0.4-0.2c-0.1,0-0.3,0-0.4,0
		c-0.2,0-0.3,0.1-0.4,0.2c-0.1,0.1-0.2,0.2-0.3,0.3c-0.1,0.1-0.1,0.3-0.2,0.4s0,0.3,0,0.4C349.6,102.3,349.7,102.4,349.8,102.5z"/>
	<path d="M361.2,102.9c-0.3,0-0.5,0.1-0.8,0.2c-0.3,0.1-0.5,0.1-0.8,0.2c-0.2,0-0.4,0.1-0.6,0.2c-0.2,0.1-0.3,0.2-0.5,0.4
		c-0.1,0.2-0.2,0.3-0.3,0.5c-0.1,0.2-0.2,0.4-0.2,0.6l-0.3-1.2l-2.8,0.6l0.3,1.5l1.2-0.3l1.3,5.9l-1.2,0.3l0.3,1.5l4.4-0.9l-0.3-1.5
		l-1.5,0.3l-0.9-4.3c0-0.3,0-0.6,0.1-0.9c0.1-0.3,0.2-0.5,0.3-0.7c0.1-0.2,0.3-0.3,0.5-0.4c0.2-0.1,0.4-0.2,0.6-0.2l0.1,0.5l1.6-0.4
		L361.2,102.9z"/>
	<path d="M372.4,102.9l1.8-0.4l-0.4-1.5l-0.8,0.2c-0.4-0.3-0.9-0.6-1.4-0.6c-0.5-0.1-1,0-1.7,0.1c-0.5,0.1-0.9,0.3-1.3,0.5
		c-0.4,0.2-0.6,0.5-0.8,0.8c-0.2,0.3-0.3,0.6-0.4,1s0,0.7,0,1.1c0.1,0.6,0.4,1,0.8,1.3c0.4,0.3,1,0.5,1.8,0.6l1.8,0.2
		c0.5,0.1,0.8,0.2,1.1,0.3c0.2,0.2,0.4,0.4,0.5,0.7c0,0.2,0,0.4,0,0.5s-0.1,0.3-0.3,0.5c-0.1,0.1-0.3,0.3-0.5,0.4s-0.4,0.2-0.6,0.2
		c-0.2,0.1-0.5,0.1-0.7,0.1s-0.4,0-0.6-0.1c-0.2-0.1-0.4-0.2-0.5-0.3s-0.3-0.3-0.3-0.6l-1.8,0.4l0.4,1.5l0.9-0.2
		c0.3,0.3,0.7,0.5,1.2,0.6s1.1,0.1,1.8-0.1c0.5-0.1,0.9-0.3,1.3-0.5s0.7-0.5,0.9-0.8c0.2-0.3,0.4-0.6,0.5-1c0.1-0.4,0.1-0.7,0-1.1
		c-0.1-0.6-0.4-1.1-0.9-1.4c-0.4-0.3-1-0.5-1.8-0.6l-1.8-0.2c-0.5,0-0.8-0.1-1-0.3c-0.2-0.1-0.4-0.3-0.4-0.6c0-0.2,0-0.3,0-0.5
		c0-0.2,0.1-0.3,0.2-0.4s0.3-0.2,0.4-0.3s0.4-0.2,0.6-0.2c0.2,0,0.4-0.1,0.6-0.1c0.2,0,0.4,0,0.6,0.1c0.2,0.1,0.4,0.2,0.5,0.3
		S372.3,102.6,372.4,102.9L372.4,102.9z"/>
	<path d="M380.7,99.8l1.2-0.3l1.4,5.4c-0.3,0.3-0.6,0.6-1,0.8c-0.3,0.2-0.7,0.4-1,0.5c-0.6,0.2-1.1,0.1-1.5-0.2
		c-0.4-0.3-0.7-0.7-0.9-1.4l-1.4-5.5l-2.8,0.7l0.4,1.5l1.2-0.3l1.1,4.2c0.1,0.6,0.3,1,0.6,1.4c0.2,0.4,0.5,0.7,0.8,0.9
		s0.7,0.3,1.1,0.4c0.4,0,0.8,0,1.3-0.1c0.5-0.1,1-0.4,1.4-0.6c0.4-0.3,0.8-0.6,1.1-1.1l0.2,0.8l2.6-0.7l-0.4-1.5l-1,0.3l-1.9-7.4
		l-2.8,0.7L380.7,99.8z"/>
	<path d="M392.6,95c-0.3,0.1-0.5,0.1-0.8,0.2c-0.3,0.1-0.5,0.1-0.8,0.2c-0.2,0.1-0.4,0.2-0.6,0.3c-0.2,0.1-0.3,0.3-0.4,0.4
		c-0.1,0.2-0.2,0.3-0.3,0.5c-0.1,0.2-0.2,0.4-0.2,0.6l-0.3-1.2l-2.8,0.8l0.4,1.5l1.2-0.3l1.6,5.9l-1.2,0.3l0.4,1.5l4.4-1.2l-0.4-1.5
		l-1.5,0.4l-1.2-4.2c0-0.3,0-0.6,0.1-0.9c0.1-0.3,0.2-0.5,0.3-0.7c0.1-0.2,0.3-0.3,0.5-0.5s0.4-0.2,0.5-0.3l0.2,0.5l1.6-0.5
		L392.6,95z"/>
	<path d="M397.1,90.5l1.3-0.4l3.1,10.2l-1.3,0.4l0.4,1.4l4.1-1.3l-0.4-1.4l-1.3,0.4l-3.5-11.6l-2.8,0.9L397.1,90.5z"/>
	<path d="M412.7,93.9c-0.1-0.2-0.1-0.4-0.2-0.6c-0.1-0.2-0.2-0.4-0.3-0.6c-0.2-0.4-0.4-0.8-0.7-1.2c-0.3-0.4-0.6-0.7-1-0.9
		c-0.4-0.2-0.8-0.4-1.3-0.4c-0.5-0.1-1.1,0-1.7,0.2c-0.7,0.2-1.2,0.5-1.7,0.9c-0.4,0.4-0.8,0.9-1,1.4c-0.2,0.5-0.3,1.1-0.3,1.7
		s0.1,1.2,0.3,1.8c0.2,0.8,0.6,1.4,0.9,1.9c0.4,0.5,0.8,0.9,1.3,1.2s1,0.4,1.6,0.5c0.6,0,1.1,0,1.7-0.2c0.6-0.2,1.2-0.5,1.7-0.9
		c0.5-0.4,1-0.8,1.4-1.4l-1-0.9c-0.4,0.4-0.8,0.8-1.2,1c-0.4,0.3-0.8,0.5-1.3,0.6c-0.6,0.2-1.1,0.2-1.7,0.1c-0.5-0.1-1-0.5-1.4-0.9
		c-0.1-0.2-0.2-0.3-0.3-0.5c-0.1-0.2-0.2-0.4-0.3-0.7L412.7,93.9z M408.8,91.5c0.3,0,0.6,0.1,0.8,0.3c0.2,0.1,0.4,0.3,0.6,0.6
		s0.3,0.5,0.4,0.8l-4.5,1.4c-0.1-0.4-0.1-0.7,0-1c0-0.3,0.1-0.6,0.2-0.9c0.1-0.3,0.3-0.5,0.5-0.7c0.2-0.2,0.5-0.3,0.9-0.5
		C408.2,91.5,408.5,91.4,408.8,91.5z"/>
	<path d="M418.5,83.8l-1.3,1.2l0.7,2.1l-1.4,0.5l0.4,1.3l1.4-0.5l1.6,4.7c0.2,0.5,0.4,1,0.6,1.3c0.2,0.3,0.5,0.6,0.7,0.7
		c0.3,0.1,0.6,0.2,0.9,0.2s0.7-0.1,1-0.2c0.4-0.1,0.7-0.3,1-0.5c0.3-0.2,0.5-0.4,0.7-0.6l-0.7-0.9c-0.2,0.2-0.3,0.3-0.5,0.4
		s-0.4,0.2-0.6,0.3c-0.2,0.1-0.4,0.1-0.6,0.1c-0.2,0-0.4-0.1-0.5-0.3c-0.1-0.2-0.3-0.4-0.4-0.8l-1.7-5l2-0.7l-0.4-1.3l-2,0.7
		L418.5,83.8z"/>
	<path d="M431.2,92l2.5-0.9l-0.5-1.4l-1,0.3l-1.5-4.3c-0.2-0.5-0.4-1-0.7-1.3c-0.3-0.3-0.6-0.6-1-0.7s-0.8-0.2-1.2-0.2
		c-0.4,0-0.9,0.1-1.4,0.3c-0.3,0.1-0.5,0.2-0.8,0.4c-0.3,0.1-0.5,0.3-0.7,0.5c-0.2,0.2-0.5,0.4-0.7,0.6c-0.2,0.2-0.4,0.4-0.5,0.6
		l0.9,0.9c0.1-0.1,0.2-0.3,0.4-0.4c0.1-0.1,0.3-0.3,0.5-0.4c0.2-0.1,0.4-0.3,0.6-0.4c0.2-0.1,0.5-0.2,0.7-0.3
		c0.3-0.1,0.5-0.2,0.8-0.2c0.3,0,0.5,0,0.7,0.1c0.2,0.1,0.4,0.2,0.6,0.4s0.3,0.4,0.4,0.7l0.2,0.7c-0.2,0-0.5,0.1-0.8,0.2
		c-0.3,0.1-0.6,0.2-1,0.3c-0.2,0.1-0.5,0.2-0.8,0.3c-0.3,0.1-0.5,0.3-0.7,0.5c-0.2,0.2-0.4,0.4-0.6,0.6c-0.2,0.2-0.3,0.5-0.4,0.7
		s-0.2,0.6-0.2,0.9c0,0.3,0.1,0.7,0.2,1c0.1,0.3,0.3,0.6,0.6,0.9s0.5,0.4,0.9,0.6c0.3,0.1,0.7,0.2,1.1,0.2c0.4,0,0.8-0.1,1.2-0.2
		c0.5-0.2,0.9-0.4,1.2-0.8s0.6-0.7,0.8-1.1L431.2,92z M428.1,91.9c-0.2,0-0.4,0-0.6-0.1c-0.2-0.1-0.4-0.2-0.5-0.3
		c-0.1-0.1-0.3-0.3-0.3-0.5c-0.1-0.2-0.1-0.5-0.1-0.7c0-0.2,0.1-0.4,0.2-0.6c0.1-0.2,0.3-0.4,0.5-0.5c0.2-0.2,0.5-0.3,0.8-0.4
		l1.8-0.6l0.7,1.9c-0.1,0.2-0.1,0.3-0.3,0.5c-0.1,0.2-0.2,0.3-0.4,0.5c-0.2,0.2-0.3,0.3-0.5,0.4c-0.2,0.1-0.4,0.2-0.6,0.3
		C428.5,91.8,428.3,91.9,428.1,91.9z"/>
	<path d="M433.6,78.3l-1.2,1.3l0.8,2l-1.4,0.5l0.5,1.2l1.4-0.5l1.8,4.7c0.2,0.5,0.4,1,0.6,1.3c0.2,0.3,0.5,0.6,0.7,0.7
		c0.3,0.1,0.6,0.2,0.9,0.2c0.3,0,0.7-0.1,1-0.2c0.4-0.1,0.7-0.3,1-0.5s0.5-0.4,0.7-0.6l-0.7-0.9c-0.2,0.2-0.3,0.3-0.5,0.4
		c-0.2,0.1-0.4,0.2-0.6,0.3c-0.2,0.1-0.4,0.1-0.6,0.1c-0.2,0-0.4-0.1-0.5-0.3c-0.2-0.2-0.3-0.4-0.4-0.8l-1.8-4.9l2-0.8l-0.5-1.2
		l-2,0.8L433.6,78.3z"/>
	<path d="M441,85.6c0.4,0.5,0.9,0.8,1.4,1.1c0.5,0.2,1.1,0.4,1.7,0.4c0.6,0,1.2-0.1,1.9-0.4c0.6-0.2,1.2-0.6,1.6-1
		c0.4-0.4,0.8-0.9,1-1.5c0.2-0.5,0.3-1.1,0.3-1.8c0-0.6-0.2-1.3-0.4-1.9c-0.3-0.7-0.6-1.2-1-1.7s-0.9-0.8-1.4-1.1
		c-0.5-0.2-1.1-0.4-1.7-0.4c-0.6,0-1.2,0.1-1.8,0.4c-0.6,0.2-1.1,0.6-1.6,1s-0.8,0.9-1,1.4c-0.2,0.5-0.3,1.1-0.3,1.8
		c0,0.6,0.1,1.3,0.4,2C440.2,84.6,440.5,85.2,441,85.6z M441.2,81.9c0-0.5,0-0.9,0.2-1.2c0.1-0.4,0.3-0.7,0.6-0.9s0.6-0.5,0.9-0.6
		c0.4-0.1,0.8-0.2,1.1-0.2c0.4,0,0.7,0.1,1.1,0.3s0.7,0.4,1,0.8c0.3,0.3,0.5,0.8,0.7,1.3c0.2,0.5,0.3,1,0.3,1.4s0,0.9-0.2,1.2
		c-0.1,0.4-0.3,0.7-0.6,1c-0.3,0.3-0.6,0.5-1,0.6c-0.4,0.1-0.7,0.2-1.1,0.2c-0.4,0-0.7-0.1-1.1-0.3s-0.7-0.4-1-0.8
		c-0.3-0.3-0.5-0.7-0.7-1.2C441.3,82.8,441.2,82.3,441.2,81.9z"/>
	<path d="M453.8,75l1.1-0.5l2.2,5.1c-0.2,0.3-0.5,0.7-0.8,0.9c-0.3,0.3-0.6,0.5-1,0.6c-0.6,0.2-1.1,0.3-1.5,0
		c-0.4-0.2-0.8-0.6-1.1-1.3l-2.2-5.2l-2.7,1.1l0.6,1.4l1.1-0.5l1.7,4c0.2,0.5,0.5,1,0.8,1.3c0.3,0.3,0.6,0.6,1,0.7
		c0.3,0.2,0.7,0.2,1.1,0.2c0.4,0,0.8-0.1,1.2-0.3c0.5-0.2,0.9-0.5,1.3-0.8c0.4-0.4,0.7-0.8,0.9-1.2l0.3,0.8l2.4-1l-0.6-1.4l-0.9,0.4
		l-3-7l-2.7,1.1L453.8,75z"/>
	<path d="M467.5,77.3l2.4-1.1l-0.6-1.4l-0.9,0.4l-1.8-4.2c-0.2-0.5-0.5-0.9-0.8-1.2c-0.3-0.3-0.7-0.5-1-0.6
		c-0.4-0.1-0.8-0.2-1.2-0.1c-0.4,0.1-0.9,0.2-1.4,0.4c-0.3,0.1-0.5,0.3-0.8,0.4s-0.5,0.3-0.7,0.5c-0.2,0.2-0.4,0.4-0.6,0.6
		s-0.3,0.4-0.5,0.6l1,0.8c0.1-0.1,0.2-0.3,0.3-0.4c0.1-0.1,0.3-0.3,0.5-0.4c0.2-0.1,0.4-0.3,0.6-0.4c0.2-0.1,0.4-0.3,0.7-0.4
		c0.3-0.1,0.5-0.2,0.8-0.2c0.2,0,0.5,0,0.7,0.1c0.2,0.1,0.4,0.2,0.6,0.4c0.2,0.2,0.3,0.4,0.5,0.7l0.3,0.7c-0.2,0.1-0.5,0.1-0.8,0.2
		c-0.3,0.1-0.6,0.2-1,0.4c-0.2,0.1-0.5,0.2-0.7,0.4c-0.2,0.2-0.5,0.3-0.7,0.5c-0.2,0.2-0.4,0.4-0.6,0.7c-0.2,0.2-0.3,0.5-0.4,0.8
		c-0.1,0.3-0.1,0.6-0.1,0.9s0.1,0.7,0.3,1c0.1,0.3,0.4,0.6,0.6,0.8s0.6,0.4,0.9,0.5c0.3,0.1,0.7,0.2,1.1,0.1c0.4,0,0.8-0.1,1.2-0.3
		c0.5-0.2,0.9-0.5,1.2-0.9c0.3-0.4,0.5-0.8,0.7-1.2L467.5,77.3z M464.3,77.4c-0.2,0-0.4,0-0.6,0c-0.2,0-0.4-0.1-0.5-0.3
		c-0.2-0.1-0.3-0.3-0.4-0.5c-0.1-0.2-0.2-0.5-0.1-0.7c0-0.2,0.1-0.4,0.2-0.6c0.1-0.2,0.3-0.4,0.5-0.6c0.2-0.2,0.5-0.3,0.7-0.4
		l1.7-0.8l0.8,1.9c0,0.2-0.1,0.3-0.2,0.5c-0.1,0.2-0.2,0.3-0.4,0.5c-0.1,0.2-0.3,0.3-0.5,0.4c-0.2,0.1-0.4,0.2-0.6,0.3
		C464.8,77.3,464.5,77.4,464.3,77.4z"/>
	<path d="M477.4,72c0.3,0.6,0.4,1,0.5,1.5s0.1,0.8,0,1.1c-0.1,0.3-0.3,0.6-0.5,0.8c-0.3,0.2-0.6,0.4-1,0.6c-0.3,0.1-0.5,0.2-0.8,0.3
		c-0.3,0.1-0.5,0.1-0.8,0.1c-0.3,0-0.5,0-0.8,0c-0.3,0-0.5-0.1-0.7-0.1l-0.2,1.6c0.3,0.1,0.7,0.1,1,0.2s0.7,0,1.1-0.1
		c0.3-0.1,0.7-0.1,1-0.2c0.3-0.1,0.6-0.2,0.9-0.4c1.3-0.6,2.1-1.4,2.4-2.4s0.2-2.1-0.5-3.4l-3.7-7.9l-1.5,0.7l0.2,0.4
		c-0.4-0.1-0.8-0.1-1.2,0s-0.8,0.2-1.2,0.4c-0.6,0.3-1.1,0.6-1.5,1.1c-0.4,0.4-0.7,0.9-0.9,1.5c-0.2,0.5-0.2,1.1-0.2,1.7
		c0.1,0.6,0.2,1.2,0.5,1.9c0.3,0.7,0.7,1.3,1.2,1.7s0.9,0.8,1.5,1c0.5,0.2,1.1,0.3,1.6,0.3c0.6,0,1.1-0.2,1.7-0.4
		c0.5-0.2,0.8-0.5,1.1-0.8c0.3-0.3,0.5-0.7,0.6-1.1L477.4,72z M474,72.8c-0.4,0-0.7-0.1-1.1-0.2c-0.4-0.2-0.7-0.4-1-0.7
		s-0.6-0.7-0.8-1.3c-0.2-0.5-0.3-0.9-0.4-1.3c0-0.4,0-0.8,0.1-1.2c0.1-0.4,0.3-0.7,0.5-0.9c0.2-0.3,0.5-0.5,0.9-0.7
		c0.4-0.2,0.8-0.3,1.2-0.3c0.4-0.1,0.8,0,1.2,0.1l2.1,4.5c0,0.2-0.1,0.3-0.2,0.5c-0.1,0.2-0.2,0.3-0.3,0.5c-0.1,0.2-0.3,0.3-0.5,0.4
		c-0.2,0.1-0.4,0.3-0.6,0.4C474.8,72.6,474.4,72.7,474,72.8z"/>
	<path d="M486.5,63.5c-0.1-0.2-0.2-0.4-0.3-0.6c-0.1-0.2-0.2-0.4-0.3-0.6c-0.3-0.4-0.5-0.7-0.9-1.1c-0.3-0.3-0.7-0.6-1.1-0.8
		c-0.4-0.2-0.9-0.3-1.4-0.2c-0.5,0-1.1,0.2-1.7,0.5c-0.6,0.3-1.1,0.7-1.5,1.2c-0.4,0.5-0.6,1-0.8,1.5c-0.1,0.5-0.2,1.1-0.1,1.7
		s0.3,1.2,0.6,1.8c0.4,0.7,0.8,1.3,1.2,1.8c0.5,0.4,0.9,0.8,1.5,1s1.1,0.3,1.6,0.2c0.6,0,1.1-0.2,1.7-0.5c0.6-0.3,1.1-0.7,1.6-1.1
		c0.5-0.4,0.9-1,1.2-1.6l-1.1-0.7c-0.3,0.5-0.6,0.9-1,1.2s-0.7,0.6-1.2,0.8c-0.5,0.3-1.1,0.4-1.7,0.3c-0.6-0.1-1.1-0.3-1.5-0.7
		c-0.1-0.1-0.3-0.3-0.4-0.5c-0.1-0.2-0.3-0.4-0.4-0.6L486.5,63.5z M482.3,61.7c0.3,0,0.6,0,0.8,0.1s0.5,0.3,0.7,0.5
		c0.2,0.2,0.4,0.5,0.6,0.8l-4.2,2.1c-0.1-0.4-0.2-0.7-0.2-1c0-0.3,0-0.6,0.1-0.9c0.1-0.3,0.2-0.5,0.4-0.7s0.5-0.4,0.8-0.6
		C481.7,61.8,482,61.7,482.3,61.7z"/>
	<path d="M66.7,43.4h1v8h-1v1.2h3.9c0.5,0,0.9-0.1,1.4-0.2s0.8-0.3,1.2-0.5s0.7-0.5,1-0.8s0.6-0.7,0.8-1.1c0.2-0.4,0.4-0.8,0.5-1.2
		s0.2-0.9,0.2-1.4c0-0.5-0.1-0.9-0.2-1.4s-0.3-0.9-0.5-1.2s-0.5-0.7-0.8-1s-0.6-0.6-1-0.8s-0.8-0.4-1.2-0.5s-0.9-0.2-1.4-0.2h-3.9
		V43.4z M70.6,43.4c0.5,0,0.9,0.1,1.4,0.3s0.8,0.5,1.1,0.8s0.6,0.8,0.7,1.3s0.3,1,0.3,1.6c0,0.6-0.1,1.1-0.3,1.6s-0.4,0.9-0.7,1.3
		s-0.7,0.6-1.1,0.9s-0.9,0.3-1.4,0.3H69v-8H70.6z"/>
	<path d="M77,43.4h1v8h-1v1.2h7.4v-2.9H83v1.8h-3.7v-3.5h3.1v-1.2h-3.1v-3.3H83v1.8h1.4v-2.9H77V43.4z"/>
	<path d="M240.4,53.6h3.4v-1.2h-1l-3.2-9.2h-2l-3.2,9.2h-0.9v1.2h3.4v-1.2h-1.1l0.8-2.4h4l0.8,2.4h-0.9V53.6z M238.4,44.3l1.6,4.6
		h-3.2L238.4,44.3z M239.4,42.3l-1.3-2h-1.7v0.1l2,1.9H239.4z"/>
	<path d="M225.4,56.4h1v8h-1v1.2h7.8v-3.1h-1.3v1.3c0,0.1,0,0.1-0.1,0.2c0,0.1-0.1,0.1-0.1,0.2s-0.1,0.1-0.2,0.1
		c-0.1,0-0.1,0.1-0.2,0.1h-3.6v-8h1v-1.2h-3.4V56.4z"/>
	<path d="M240.4,65.6h3.4v-1.2h-1l-3.2-9.2h-2l-3.2,9.2h-0.9v1.2h3.4v-1.2h-1.1l0.8-2.4h4l0.8,2.4h-0.9V65.6z M238.4,56.3l1.6,4.6
		h-3.2L238.4,56.3z"/>
	<path d="M90.3,47.4h2.3v14.2h-2.3v4h9.2v-4h-2v-4.2h3.1c1.3,0,2.5-0.2,3.5-0.6s1.8-0.9,2.4-1.6s1.1-1.4,1.4-2.4s0.5-1.9,0.5-2.9
		c0-0.9-0.2-1.7-0.6-2.5s-0.9-1.5-1.6-2.1s-1.5-1.1-2.5-1.4s-2-0.5-3.1-0.5H90.3V47.4z M99.5,47.4c1.2,0,2.1,0.3,2.7,0.8
		s0.9,1.3,0.9,2.2c0,1-0.3,1.8-1,2.2s-1.5,0.7-2.7,0.7h-2v-6H99.5z"/>
	<path d="M122.3,65.6h8.4v-4h-1.6l-5.9-18.2h-5.9l-6,18.2h-1.7v4h8.4v-4h-2.3l1-3.2h6.8l1,3.2h-2.2V65.6z M120.1,47.4l2.3,7.2h-4.5
		L120.1,47.4z"/>
	<path d="M143.4,50.9h5.3v-4.4h-1.5c-0.2-0.5-0.5-1-1-1.4s-0.9-0.9-1.6-1.2s-1.3-0.6-2.1-0.8s-1.6-0.3-2.5-0.3
		c-1.2,0-2.2,0.1-3.2,0.4s-1.8,0.7-2.5,1.3s-1.3,1.3-1.6,2.1s-0.6,1.8-0.6,2.8c0,0.9,0.1,1.7,0.4,2.4s0.6,1.3,1.1,1.9s1,1,1.6,1.3
		s1.2,0.6,1.8,0.8l3.4,1.1c0.3,0.1,0.6,0.2,0.9,0.3s0.6,0.3,0.8,0.4s0.5,0.4,0.6,0.6s0.2,0.6,0.2,0.9c0,0.7-0.2,1.3-0.7,1.7
		c-0.5,0.4-1.1,0.6-2,0.6c-0.6,0-1.1-0.1-1.5-0.2c-0.4-0.2-0.8-0.4-1.1-0.6s-0.5-0.6-0.6-1s-0.2-0.8-0.2-1.2v-0.9h-5.3v4.4h1.5
		c0.3,0.6,0.6,1.2,1.1,1.7c0.5,0.5,1,0.9,1.6,1.3s1.3,0.6,2.1,0.8c0.8,0.2,1.6,0.3,2.4,0.3c1.2,0,2.3-0.2,3.3-0.5s1.9-0.8,2.6-1.5
		s1.3-1.4,1.7-2.3s0.6-1.9,0.6-2.9c0-0.8-0.1-1.5-0.3-2.1s-0.5-1.2-0.8-1.7s-0.8-0.9-1.3-1.2s-1-0.6-1.6-0.8l-4-1.3
		c-0.3-0.1-0.7-0.2-1.1-0.3s-0.7-0.2-1-0.4s-0.5-0.4-0.7-0.6s-0.3-0.6-0.3-1c0-0.4,0.1-0.7,0.2-0.9s0.3-0.5,0.6-0.6s0.5-0.3,0.8-0.4
		s0.7-0.1,1-0.1c0.4,0,0.8,0.1,1.2,0.2s0.7,0.3,1,0.5s0.5,0.5,0.7,0.8s0.3,0.6,0.4,1V50.9z"/>
	<path d="M161.6,50.9h5.3v-4.4h-1.5c-0.2-0.5-0.5-1-1-1.4s-0.9-0.9-1.6-1.2s-1.3-0.6-2.1-0.8s-1.6-0.3-2.5-0.3
		c-1.2,0-2.2,0.1-3.2,0.4s-1.8,0.7-2.5,1.3s-1.3,1.3-1.6,2.1s-0.6,1.8-0.6,2.8c0,0.9,0.1,1.7,0.4,2.4s0.6,1.3,1.1,1.9s1,1,1.6,1.3
		s1.2,0.6,1.8,0.8l3.4,1.1c0.3,0.1,0.6,0.2,0.9,0.3s0.6,0.3,0.8,0.4s0.5,0.4,0.6,0.6s0.2,0.6,0.2,0.9c0,0.7-0.2,1.3-0.7,1.7
		c-0.5,0.4-1.1,0.6-2,0.6c-0.6,0-1.1-0.1-1.5-0.2c-0.4-0.2-0.8-0.4-1.1-0.6s-0.5-0.6-0.6-1s-0.2-0.8-0.2-1.2v-0.9h-5.3v4.4h1.5
		c0.3,0.6,0.6,1.2,1.1,1.7c0.5,0.5,1,0.9,1.6,1.3s1.3,0.6,2.1,0.8c0.8,0.2,1.6,0.3,2.4,0.3c1.2,0,2.3-0.2,3.3-0.5s1.9-0.8,2.6-1.5
		s1.3-1.4,1.7-2.3s0.6-1.9,0.6-2.9c0-0.8-0.1-1.5-0.3-2.1s-0.5-1.2-0.8-1.7s-0.8-0.9-1.3-1.2s-1-0.6-1.6-0.8l-4-1.3
		c-0.3-0.1-0.7-0.2-1.1-0.3s-0.7-0.2-1-0.4s-0.5-0.4-0.7-0.6s-0.3-0.6-0.3-1c0-0.4,0.1-0.7,0.2-0.9s0.3-0.5,0.6-0.6s0.5-0.3,0.8-0.4
		s0.7-0.1,1-0.1c0.4,0,0.8,0.1,1.2,0.2s0.7,0.3,1,0.5s0.5,0.5,0.7,0.8s0.3,0.6,0.4,1V50.9z"/>
	<path d="M169.2,47.8h2.3v13.8h-2.3v4h17.7v-8h-4.8v3.9h-5.7v-5.1h4.4v-4.2h-4.4v-4.4h5.7V51h4.8v-7.6h-17.7V47.8z"/>
	<path d="M189.4,47.4h2.3v14.2h-2.3v4h9.2v-4h-2v-4.8h1.9c0.6,0,1.1,0.1,1.5,0.2s0.8,0.3,1.1,0.6s0.5,0.7,0.7,1.1
		c0.2,0.5,0.3,1,0.4,1.6l0.9,5.3h6.4l0-4.3h-1.8l-0.7-2.9c-0.2-0.8-0.5-1.5-0.9-2s-0.8-0.9-1.3-1.2c0.6-0.3,1.1-0.6,1.5-0.9
		s0.8-0.7,1.1-1.2s0.5-0.9,0.7-1.5s0.2-1.2,0.2-2c0-0.8-0.2-1.6-0.5-2.4s-0.8-1.4-1.4-2s-1.4-1-2.3-1.4s-1.9-0.5-3.1-0.5h-11.7V47.4
		z M199.5,47.4c1.2,0,2.1,0.2,2.7,0.7s0.9,1.1,0.9,2c0,0.5-0.1,0.9-0.3,1.2s-0.4,0.6-0.7,0.8s-0.7,0.4-1.1,0.5s-0.9,0.2-1.5,0.2
		h-2.9v-5.4H199.5z"/>
	<path d="M247.8,65.6H259c0.9,0,1.8-0.2,2.7-0.5c0.8-0.3,1.5-0.8,2.1-1.4c0.6-0.6,1.1-1.3,1.4-2.2s0.5-1.8,0.5-2.8
		c0-1-0.2-1.8-0.6-2.5s-1-1.3-1.7-1.7c0.7-0.4,1.2-1,1.6-1.7s0.6-1.6,0.6-2.7c0-0.9-0.2-1.8-0.5-2.6s-0.8-1.5-1.4-2.1
		c-0.6-0.6-1.3-1.1-2.2-1.5s-1.8-0.5-2.8-0.5l-10.8,0v4.1h2.3v14.2h-2.3V65.6z M258.7,56.4c0.3,0,0.5,0.1,0.8,0.2s0.5,0.3,0.7,0.5
		s0.3,0.5,0.4,0.8c0.1,0.3,0.2,0.6,0.2,1c0,0.3-0.1,0.7-0.2,1c-0.1,0.3-0.3,0.6-0.4,0.8c-0.2,0.2-0.4,0.4-0.6,0.6s-0.5,0.2-0.8,0.2
		H255v-5.2H258.7z M258.5,47.4c0.3,0,0.5,0.1,0.8,0.2c0.2,0.2,0.5,0.3,0.6,0.6s0.3,0.5,0.4,0.8s0.2,0.6,0.2,0.9
		c0,0.3-0.1,0.6-0.2,0.9s-0.3,0.5-0.4,0.8s-0.4,0.4-0.6,0.5c-0.2,0.1-0.5,0.2-0.8,0.2H255v-5H258.5z"/>
	<path d="M281.1,65.6c0.9-0.3,1.8-0.7,2.6-1.2s1.5-1.1,2.2-1.8c0.6-0.7,1.2-1.5,1.7-2.3c0.5-0.9,0.8-1.8,1.1-2.8
		c0.3-1,0.4-2,0.4-3.1c0-1.1-0.1-2.1-0.4-3.1c-0.3-1-0.6-1.9-1.1-2.8s-1-1.6-1.7-2.3s-1.4-1.3-2.2-1.8s-1.7-0.9-2.6-1.2
		s-1.9-0.4-2.9-0.4c-1,0-2,0.1-2.9,0.4s-1.8,0.7-2.6,1.2s-1.5,1.1-2.2,1.8s-1.2,1.5-1.7,2.3s-0.8,1.8-1.1,2.8s-0.4,2-0.4,3.1
		s0.1,2.1,0.4,3.1s0.6,1.9,1.1,2.7c0.5,0.9,1,1.6,1.7,2.3c0.6,0.7,1.4,1.3,2.2,1.8s1.7,0.9,2.6,1.2s1.9,0.4,2.9,0.4
		C279.2,66,280.2,65.9,281.1,65.6z M275.9,60.8c-0.7-0.4-1.3-0.9-1.8-1.5c-0.5-0.6-0.9-1.4-1.2-2.2s-0.4-1.7-0.4-2.7
		c0-0.9,0.1-1.8,0.4-2.7s0.7-1.6,1.2-2.2s1.1-1.1,1.8-1.5c0.7-0.4,1.5-0.5,2.3-0.5c0.8,0,1.6,0.2,2.3,0.5s1.3,0.9,1.8,1.5
		s0.9,1.4,1.2,2.2s0.4,1.7,0.4,2.7c0,0.9-0.1,1.8-0.4,2.7s-0.7,1.6-1.2,2.2c-0.5,0.6-1.1,1.1-1.8,1.5c-0.7,0.4-1.5,0.5-2.3,0.5
		C277.3,61.4,276.6,61.2,275.9,60.8z"/>
	<path d="M291,47.4h2v8.9c0,1.5,0.2,2.8,0.7,4c0.4,1.2,1.1,2.2,1.8,3c0.8,0.8,1.7,1.5,2.7,1.9c1,0.4,2.2,0.7,3.4,0.7
		c1.2,0,2.3-0.2,3.4-0.7s2-1.1,2.8-1.9s1.4-1.9,1.9-3.1c0.4-1.2,0.7-2.6,0.7-4.2v-8.6h1.8v-4h-8.9v4h2.4v9.2c0,0.9-0.1,1.6-0.3,2.2
		s-0.4,1.1-0.8,1.4c-0.3,0.4-0.7,0.6-1.2,0.8s-1,0.2-1.6,0.2c-0.6,0-1.1-0.1-1.5-0.3c-0.5-0.2-0.9-0.4-1.2-0.8
		c-0.3-0.4-0.6-0.8-0.8-1.4s-0.3-1.3-0.3-2.1v-9.2h2v-4H291V47.4z"/>
	<path d="M318.5,65.6h9.5v-4h-2.3V47.3h3.1v2.9h4.8v-6.8h-20.2v6.8h4.8v-2.9h2.7v14.3h-2.3V65.6z"/>
	<path d="M335.7,47.4h2.3v14.2h-2.3v4h9.5v-4h-2.3V47.4h2.3v-4h-9.5V47.4z"/>
	<path d="M355.5,69.5c0.2-0.1,0.3-0.1,0.5-0.1c0.1,0,0.3,0,0.4,0c0.1,0,0.2,0,0.4,0c0.1,0,0.3,0,0.4,0c0.4,0,0.8,0.1,1.3,0.3
		c0.5,0.2,1,0.5,1.5,0.7c0.5,0.3,1.1,0.5,1.7,0.7c0.6,0.2,1.2,0.3,1.7,0.3c0.7,0,1.4-0.1,2-0.3c0.6-0.2,1.2-0.5,1.7-1
		c0.5-0.4,0.9-0.9,1.2-1.5s0.5-1.2,0.6-1.9l-3.3-1.6c-0.1,0.4-0.2,0.7-0.3,1s-0.4,0.5-0.6,0.6c-0.2,0.2-0.5,0.3-0.8,0.4
		s-0.6,0.1-0.9,0.1c-0.3,0-0.6-0.1-0.9-0.2c-0.3-0.1-0.6-0.2-0.9-0.3c-0.3-0.1-0.6-0.3-0.9-0.4c-0.3-0.2-0.6-0.3-0.9-0.4
		c1.3-0.2,2.5-0.7,3.6-1.3c1.1-0.7,2-1.5,2.8-2.5s1.4-2.1,1.9-3.4s0.7-2.6,0.7-4c0-1.1-0.1-2.1-0.4-3.1s-0.6-1.9-1.1-2.8
		s-1-1.6-1.7-2.3s-1.4-1.3-2.2-1.8s-1.7-0.9-2.6-1.2s-1.9-0.4-2.9-0.4s-2,0.1-2.9,0.4s-1.8,0.7-2.6,1.2s-1.5,1.1-2.2,1.8
		s-1.2,1.5-1.7,2.3s-0.8,1.8-1.1,2.8s-0.4,2-0.4,3.1c0,1.4,0.2,2.7,0.7,4c0.4,1.3,1,2.4,1.8,3.4s1.7,1.8,2.8,2.5
		c1.1,0.7,2.2,1.1,3.5,1.4L355.5,69.5z M355.3,60.8c-0.7-0.4-1.3-0.9-1.8-1.5c-0.5-0.6-0.9-1.4-1.2-2.2s-0.4-1.7-0.4-2.7
		c0-0.9,0.1-1.8,0.4-2.7s0.7-1.6,1.2-2.2c0.5-0.6,1.1-1.1,1.8-1.5s1.5-0.5,2.3-0.5s1.6,0.2,2.3,0.5c0.7,0.4,1.3,0.9,1.8,1.5
		s0.9,1.4,1.2,2.2c0.3,0.8,0.4,1.7,0.4,2.7c0,0.9-0.1,1.8-0.4,2.7s-0.7,1.6-1.2,2.2c-0.5,0.6-1.1,1.1-1.8,1.5
		c-0.7,0.4-1.5,0.5-2.3,0.5C356.8,61.4,356,61.2,355.3,60.8z"/>
	<path d="M370.6,47.4h2v8.9c0,1.5,0.2,2.8,0.7,4s1.1,2.2,1.8,3c0.8,0.8,1.7,1.5,2.7,1.9c1,0.4,2.2,0.7,3.4,0.7
		c1.2,0,2.3-0.2,3.4-0.7s2-1.1,2.8-1.9s1.4-1.9,1.9-3.1c0.4-1.2,0.7-2.6,0.7-4.2v-8.6h1.8v-4h-8.9v4h2.4v9.2c0,0.9-0.1,1.6-0.3,2.2
		s-0.4,1.1-0.8,1.4c-0.3,0.4-0.7,0.6-1.2,0.8s-1,0.2-1.6,0.2c-0.6,0-1.1-0.1-1.5-0.3c-0.5-0.2-0.9-0.4-1.2-0.8
		c-0.3-0.4-0.6-0.8-0.8-1.4s-0.3-1.3-0.3-2.1v-9.2h2v-4h-8.9V47.4z"/>
	<path d="M394.3,47.8h2.3v13.8h-2.3v4H412v-8h-4.8v3.9h-5.7v-5.1h4.4v-4.2h-4.4v-4.4h5.7V51h4.8v-7.6h-17.7V47.8z"/>
	<path d="M138.6,121.4l0.9,0.2l-1.4,7.2l-0.9-0.2l-0.2,1.1l3.1,0.6l0.2-1.1l-1-0.2l0.4-2.1c0.2,0.2,0.4,0.3,0.7,0.4
		c0.2,0.1,0.5,0.2,0.9,0.3c0.5,0.1,0.9,0.1,1.3,0c0.4-0.1,0.8-0.3,1.1-0.5c0.3-0.3,0.6-0.6,0.9-1c0.2-0.4,0.4-0.9,0.5-1.4
		c0.1-0.5,0.1-0.9,0-1.4s-0.2-0.8-0.4-1.1c-0.2-0.3-0.5-0.6-0.8-0.8c-0.3-0.2-0.7-0.4-1.1-0.5c-0.3-0.1-0.7-0.1-1,0
		c-0.3,0.1-0.7,0.2-1,0.3l0.1-0.5l-2-0.4L138.6,121.4z M143,122.3c0.2,0.1,0.4,0.3,0.5,0.6c0.1,0.2,0.2,0.5,0.3,0.8
		c0.1,0.3,0,0.6,0,1c-0.1,0.4-0.2,0.7-0.4,1c-0.2,0.3-0.4,0.5-0.6,0.7c-0.2,0.2-0.5,0.3-0.7,0.3c-0.3,0.1-0.5,0.1-0.8,0
		c-0.4-0.1-0.7-0.2-0.9-0.4c-0.2-0.2-0.4-0.3-0.5-0.5l0.7-3.5c0.2-0.2,0.5-0.3,0.8-0.4c0.3-0.1,0.6-0.1,0.9,0
		C142.6,122,142.8,122.1,143,122.3z"/>
	<path d="M146.1,126.6c0.1,0.4,0.2,0.8,0.5,1.2s0.5,0.6,0.9,0.9s0.8,0.4,1.3,0.5c0.5,0.1,0.9,0.1,1.4,0s0.8-0.3,1.1-0.5
		c0.3-0.3,0.6-0.6,0.9-1c0.2-0.4,0.4-0.8,0.5-1.3c0.1-0.5,0.1-1,0-1.4c-0.1-0.4-0.2-0.8-0.5-1.2c-0.2-0.3-0.5-0.6-0.9-0.9
		s-0.8-0.4-1.3-0.5c-0.5-0.1-0.9-0.1-1.3,0s-0.8,0.3-1.1,0.5s-0.6,0.6-0.9,1s-0.4,0.8-0.5,1.3C146,125.6,146,126.1,146.1,126.6z
		 M147.6,124.3c0.2-0.3,0.4-0.5,0.6-0.7c0.2-0.2,0.5-0.3,0.7-0.3s0.5-0.1,0.8,0c0.3,0.1,0.5,0.2,0.8,0.3c0.2,0.1,0.4,0.3,0.6,0.6
		s0.2,0.5,0.3,0.8s0,0.7,0,1.1c-0.1,0.4-0.2,0.7-0.3,1c-0.2,0.3-0.3,0.5-0.6,0.7c-0.2,0.2-0.5,0.3-0.7,0.4c-0.3,0.1-0.5,0.1-0.8,0
		c-0.3,0-0.5-0.2-0.7-0.3c-0.2-0.2-0.4-0.4-0.6-0.6c-0.1-0.2-0.2-0.5-0.3-0.8s0-0.7,0-1C147.4,125,147.5,124.6,147.6,124.3z"/>
	<path d="M158,125l0.9,0.1l-0.6,3.9c-0.3,0.1-0.6,0.2-0.9,0.2c-0.3,0-0.6,0-0.8,0c-0.4-0.1-0.7-0.3-0.9-0.5s-0.2-0.7-0.2-1.2l0.7-4
		l-2.1-0.3l-0.2,1.1l0.9,0.1l-0.5,3.1c-0.1,0.4-0.1,0.8,0,1.1c0,0.3,0.2,0.6,0.3,0.8c0.2,0.2,0.4,0.4,0.6,0.5s0.5,0.2,0.9,0.3
		c0.4,0.1,0.8,0.1,1.1,0c0.4-0.1,0.7-0.2,1-0.4l-0.1,0.6l1.9,0.3l0.2-1.1l-0.7-0.1l0.9-5.4l-2.1-0.3L158,125z"/>
	<path d="M167.3,125.3c-0.2,0-0.4-0.1-0.6-0.1c-0.2,0-0.4-0.1-0.6-0.1c-0.2,0-0.3,0-0.5,0c-0.1,0-0.3,0.1-0.4,0.1
		c-0.1,0.1-0.2,0.2-0.4,0.3c-0.1,0.1-0.2,0.2-0.3,0.3l0.1-0.9l-2.1-0.3l-0.2,1.1l0.9,0.1l-0.7,4.3l-0.9-0.1l-0.2,1.1l3.2,0.5
		l0.2-1.1l-1.1-0.2l0.5-3.1c0.1-0.2,0.2-0.4,0.3-0.6c0.1-0.1,0.2-0.3,0.4-0.4c0.1-0.1,0.3-0.1,0.4-0.2c0.2,0,0.3,0,0.4,0l-0.1,0.4
		l1.2,0.2L167.3,125.3z"/>
	<path d="M174.7,133l3,0.4l0.1-1.1l-0.9-0.1l0.4-3.1c0.1-0.4,0-0.8,0-1.1c-0.1-0.3-0.2-0.6-0.4-0.8c-0.2-0.2-0.4-0.4-0.7-0.5
		c-0.3-0.1-0.6-0.2-0.9-0.3c-0.2,0-0.4,0-0.6,0s-0.4,0.1-0.6,0.1c-0.2,0.1-0.4,0.1-0.5,0.2s-0.3,0.2-0.5,0.3l0,0l0.1-0.8l-2.1-0.3
		l-0.1,1.1l0.9,0.1l-0.6,4.3l-0.9-0.1l-0.1,1.1l3,0.4l0.1-1.1l-0.9-0.1l0.5-3.8c0.3-0.2,0.6-0.3,0.8-0.4c0.3-0.1,0.6-0.1,0.8-0.1
		c0.5,0.1,0.8,0.2,1,0.5s0.3,0.7,0.2,1.2l-0.4,3l-0.9-0.1L174.7,133z"/>
	<path d="M185.1,131.1c0-0.2,0-0.3,0-0.5s0-0.3,0-0.5c0-0.3,0-0.7-0.1-1s-0.2-0.6-0.4-0.9c-0.2-0.3-0.4-0.5-0.7-0.7
		c-0.3-0.2-0.7-0.3-1.2-0.4c-0.5-0.1-1,0-1.4,0.1c-0.4,0.1-0.7,0.3-1,0.6c-0.3,0.3-0.5,0.6-0.7,1c-0.2,0.4-0.3,0.8-0.3,1.3
		c-0.1,0.6,0,1.1,0.1,1.5c0.1,0.4,0.3,0.8,0.5,1.2c0.2,0.3,0.5,0.6,0.9,0.8c0.4,0.2,0.8,0.3,1.2,0.4c0.5,0.1,0.9,0,1.4-0.1
		c0.4-0.1,0.9-0.3,1.4-0.5l-0.4-0.9c-0.4,0.2-0.7,0.3-1.1,0.3s-0.7,0.1-1,0c-0.4-0.1-0.8-0.2-1.1-0.5c-0.3-0.3-0.5-0.6-0.6-1
		c0-0.1-0.1-0.3-0.1-0.5c0-0.2,0-0.3,0-0.5L185.1,131.1z M183.3,128.4c0.2,0.1,0.3,0.2,0.4,0.4c0.1,0.2,0.2,0.4,0.2,0.6
		c0,0.2,0,0.4,0,0.7l-3.4-0.4c0.1-0.3,0.2-0.5,0.3-0.7s0.2-0.4,0.4-0.5s0.3-0.2,0.6-0.3c0.2-0.1,0.5-0.1,0.7,0
		C182.8,128.2,183.1,128.3,183.3,128.4z"/>
	<path d="M189.4,129.2l0.9,0.1l-0.7,7.3l-0.9-0.1l-0.1,1.1l3.1,0.3l0.1-1.1l-1-0.1l0.2-2.1c0.2,0.1,0.5,0.2,0.7,0.3
		c0.3,0.1,0.5,0.2,0.9,0.2c0.5,0,0.9,0,1.3-0.1s0.8-0.3,1.1-0.6c0.3-0.3,0.6-0.6,0.8-1c0.2-0.4,0.3-0.9,0.4-1.4c0-0.5,0-0.9-0.1-1.4
		c-0.1-0.4-0.3-0.8-0.5-1.1c-0.2-0.3-0.5-0.6-0.9-0.8c-0.3-0.2-0.7-0.3-1.2-0.4c-0.3,0-0.7,0-1,0.1c-0.3,0.1-0.7,0.2-1,0.4l0.1-0.5
		l-2.1-0.2L189.4,129.2z M193.9,129.6c0.2,0.1,0.4,0.3,0.6,0.5s0.3,0.5,0.4,0.8c0.1,0.3,0.1,0.6,0.1,1c0,0.4-0.1,0.8-0.3,1
		s-0.3,0.5-0.5,0.7c-0.2,0.2-0.4,0.3-0.7,0.4c-0.3,0.1-0.5,0.1-0.8,0.1c-0.4,0-0.7-0.1-0.9-0.3c-0.2-0.1-0.4-0.3-0.6-0.4l0.3-3.5
		c0.2-0.2,0.5-0.3,0.8-0.4c0.3-0.1,0.6-0.1,0.9-0.1C193.4,129.4,193.7,129.5,193.9,129.6z"/>
	<path d="M200.8,135.8l1.9,0.2l0.1-1.1l-0.7-0.1l0.3-3.3c0-0.4,0-0.8-0.1-1.1c-0.1-0.3-0.2-0.6-0.4-0.8c-0.2-0.2-0.4-0.4-0.7-0.5
		c-0.3-0.1-0.6-0.2-1-0.2c-0.2,0-0.4,0-0.6,0c-0.2,0-0.4,0-0.6,0.1c-0.2,0-0.4,0.1-0.6,0.2s-0.4,0.1-0.5,0.2l0.3,0.8
		c0.1-0.1,0.2-0.1,0.4-0.2c0.1,0,0.3-0.1,0.4-0.1c0.2,0,0.3-0.1,0.5-0.1c0.2,0,0.4,0,0.6,0c0.2,0,0.4,0.1,0.6,0.1s0.3,0.2,0.4,0.3
		c0.1,0.1,0.2,0.3,0.2,0.4c0.1,0.2,0.1,0.4,0.1,0.6l-0.1,0.5c-0.2,0-0.3-0.1-0.6-0.1s-0.5-0.1-0.8-0.1c-0.2,0-0.4,0-0.6,0
		c-0.2,0-0.4,0-0.6,0.1c-0.2,0-0.4,0.1-0.6,0.2c-0.2,0.1-0.4,0.2-0.5,0.4c-0.1,0.1-0.3,0.3-0.4,0.5c-0.1,0.2-0.2,0.4-0.2,0.7
		c0,0.3,0,0.5,0.1,0.8c0.1,0.2,0.2,0.5,0.4,0.6c0.2,0.2,0.4,0.3,0.7,0.5c0.3,0.1,0.5,0.2,0.9,0.2c0.4,0,0.7,0,1-0.1
		c0.3-0.1,0.6-0.3,0.9-0.5L200.8,135.8z M198.8,134.7c-0.2-0.1-0.3-0.1-0.4-0.2s-0.2-0.2-0.2-0.3c-0.1-0.1-0.1-0.3-0.1-0.5
		c0-0.2,0.1-0.3,0.2-0.5c0.1-0.1,0.2-0.2,0.3-0.3c0.1-0.1,0.3-0.1,0.5-0.2c0.2,0,0.4,0,0.6,0l1.4,0.1l-0.1,1.5
		c-0.1,0.1-0.2,0.2-0.3,0.2c-0.1,0.1-0.3,0.1-0.4,0.2s-0.3,0.1-0.5,0.1c-0.2,0-0.3,0-0.5,0C199.1,134.8,199,134.8,198.8,134.7z"/>
	<path d="M208.2,131.5l1.3,0.1l0.1-1.1l-0.6,0c-0.2-0.3-0.5-0.6-0.8-0.7c-0.3-0.2-0.7-0.2-1.2-0.3c-0.4,0-0.7,0-1,0.1
		c-0.3,0.1-0.5,0.2-0.7,0.3s-0.4,0.3-0.5,0.6c-0.1,0.2-0.2,0.5-0.2,0.8c0,0.4,0.1,0.8,0.3,1.1c0.2,0.3,0.6,0.6,1.1,0.8l1.2,0.6
		c0.3,0.1,0.5,0.3,0.7,0.4c0.1,0.2,0.2,0.3,0.2,0.6c0,0.1-0.1,0.3-0.1,0.4s-0.2,0.2-0.3,0.3c-0.1,0.1-0.3,0.1-0.4,0.1
		c-0.2,0-0.3,0-0.5,0c-0.2,0-0.3,0-0.5-0.1c-0.2,0-0.3-0.1-0.4-0.2c-0.1-0.1-0.2-0.2-0.3-0.3c-0.1-0.1-0.1-0.3-0.1-0.5l-1.3-0.1
		l-0.1,1.1l0.7,0c0.2,0.3,0.4,0.5,0.7,0.7s0.7,0.3,1.2,0.3c0.4,0,0.7,0,1-0.1c0.3-0.1,0.6-0.2,0.8-0.3c0.2-0.2,0.4-0.3,0.5-0.6
		s0.2-0.5,0.2-0.8c0-0.4-0.1-0.8-0.3-1.1s-0.6-0.6-1.1-0.8l-1.2-0.5c-0.3-0.1-0.5-0.3-0.6-0.4s-0.2-0.3-0.2-0.5c0-0.1,0-0.2,0.1-0.3
		c0.1-0.1,0.1-0.2,0.3-0.2s0.2-0.1,0.4-0.1c0.1,0,0.3,0,0.5,0c0.2,0,0.3,0,0.5,0.1c0.2,0,0.3,0.1,0.4,0.2c0.1,0.1,0.2,0.2,0.3,0.3
		C208.2,131.2,208.2,131.3,208.2,131.5L208.2,131.5z"/>
	<path d="M213.2,131.2l0.9,0l-0.4,7.3l-0.9,0l-0.1,1.1l3.1,0.2l0.1-1.1l-1-0.1l0.1-2.1c0.2,0.1,0.5,0.2,0.7,0.3
		c0.3,0.1,0.5,0.1,0.9,0.2c0.5,0,0.9,0,1.3-0.2s0.8-0.4,1.1-0.7c0.3-0.3,0.5-0.7,0.7-1.1c0.2-0.4,0.3-0.9,0.3-1.4
		c0-0.5,0-0.9-0.1-1.4c-0.1-0.4-0.3-0.8-0.5-1.1c-0.2-0.3-0.5-0.5-0.9-0.7c-0.3-0.2-0.7-0.3-1.2-0.3c-0.3,0-0.7,0-1,0.1
		s-0.6,0.3-0.9,0.5l0-0.5l-2.1-0.1L213.2,131.2z M217.7,131.4c0.2,0.1,0.4,0.3,0.6,0.5c0.2,0.2,0.3,0.5,0.4,0.7s0.1,0.6,0.1,1
		c0,0.4-0.1,0.8-0.2,1.1s-0.3,0.6-0.5,0.7s-0.4,0.3-0.7,0.4c-0.3,0.1-0.5,0.1-0.8,0.1c-0.4,0-0.7-0.1-1-0.2
		c-0.3-0.1-0.4-0.3-0.6-0.4l0.2-3.5c0.2-0.2,0.5-0.4,0.8-0.5c0.3-0.1,0.6-0.2,0.9-0.1C217.2,131.2,217.4,131.2,217.7,131.4z"/>
	<path d="M224.9,137.2l1.9,0.1l0-1.1l-0.7,0l0.1-3.3c0-0.4,0-0.8-0.1-1.1c-0.1-0.3-0.3-0.5-0.5-0.7c-0.2-0.2-0.5-0.3-0.8-0.5
		s-0.6-0.2-1-0.2c-0.2,0-0.4,0-0.6,0s-0.4,0.1-0.6,0.1c-0.2,0.1-0.4,0.1-0.6,0.2c-0.2,0.1-0.4,0.2-0.5,0.3l0.4,0.8
		c0.1-0.1,0.2-0.1,0.3-0.2c0.1-0.1,0.3-0.1,0.4-0.1c0.2,0,0.3-0.1,0.5-0.1c0.2,0,0.4,0,0.6,0c0.2,0,0.4,0,0.6,0.1
		c0.2,0.1,0.3,0.2,0.4,0.3s0.2,0.3,0.3,0.4c0.1,0.2,0.1,0.4,0.1,0.6l0,0.5c-0.2,0-0.4-0.1-0.6-0.1c-0.2,0-0.5,0-0.8-0.1
		c-0.2,0-0.4,0-0.6,0c-0.2,0-0.4,0.1-0.6,0.1c-0.2,0.1-0.4,0.1-0.6,0.2c-0.2,0.1-0.4,0.2-0.5,0.4s-0.3,0.3-0.4,0.5
		c-0.1,0.2-0.1,0.5-0.2,0.7c0,0.3,0,0.5,0.1,0.7c0.1,0.2,0.2,0.4,0.4,0.6c0.2,0.2,0.4,0.3,0.7,0.4c0.3,0.1,0.6,0.2,0.9,0.2
		c0.4,0,0.7,0,1-0.2c0.3-0.1,0.6-0.3,0.8-0.5L224.9,137.2z M222.8,136.3c-0.2,0-0.3-0.1-0.4-0.2s-0.2-0.2-0.3-0.3s-0.1-0.3-0.1-0.5
		c0-0.2,0.1-0.3,0.1-0.5c0.1-0.1,0.2-0.3,0.3-0.3c0.1-0.1,0.3-0.2,0.5-0.2s0.4-0.1,0.6-0.1l1.4,0.1l-0.1,1.5
		c-0.1,0.1-0.2,0.2-0.3,0.3c-0.1,0.1-0.3,0.2-0.4,0.2s-0.3,0.1-0.4,0.1c-0.2,0-0.3,0-0.5,0C223.1,136.3,223,136.3,222.8,136.3z"/>
	<path d="M232,132.6l1.3,0l0-1.1l-0.6,0c-0.2-0.3-0.5-0.6-0.8-0.7c-0.3-0.1-0.7-0.2-1.2-0.2c-0.4,0-0.7,0-1,0.1s-0.5,0.2-0.7,0.4
		c-0.2,0.2-0.4,0.4-0.5,0.6c-0.1,0.2-0.2,0.5-0.2,0.8c0,0.4,0.1,0.8,0.3,1.1c0.2,0.3,0.6,0.5,1.1,0.7l1.2,0.5
		c0.3,0.1,0.6,0.3,0.7,0.4s0.2,0.3,0.2,0.5c0,0.1,0,0.3-0.1,0.4s-0.2,0.2-0.3,0.3c-0.1,0.1-0.3,0.1-0.4,0.2c-0.2,0-0.3,0.1-0.5,0
		c-0.2,0-0.3,0-0.5-0.1c-0.2,0-0.3-0.1-0.4-0.2c-0.1-0.1-0.2-0.2-0.3-0.3c-0.1-0.1-0.1-0.3-0.1-0.5l-1.3,0l0,1.1l0.7,0
		c0.2,0.3,0.4,0.5,0.7,0.7s0.7,0.3,1.2,0.3c0.4,0,0.7,0,1-0.1s0.6-0.2,0.8-0.4c0.2-0.2,0.4-0.4,0.5-0.6c0.1-0.2,0.2-0.5,0.2-0.8
		c0-0.4-0.1-0.8-0.3-1.1c-0.2-0.3-0.6-0.6-1.2-0.8l-1.2-0.5c-0.3-0.1-0.5-0.2-0.7-0.4c-0.1-0.1-0.2-0.3-0.2-0.5c0-0.1,0-0.2,0.1-0.3
		c0.1-0.1,0.1-0.2,0.2-0.3c0.1-0.1,0.2-0.1,0.4-0.2c0.1,0,0.3,0,0.5,0c0.2,0,0.3,0,0.5,0.1c0.2,0,0.3,0.1,0.4,0.2
		c0.1,0.1,0.2,0.2,0.3,0.3C232,132.3,232,132.5,232,132.6L232,132.6z"/>
	<path d="M238.2,132.8l1.3,0l0-1.1l-0.6,0c-0.2-0.3-0.5-0.5-0.8-0.7c-0.3-0.1-0.7-0.2-1.2-0.2c-0.4,0-0.7,0-1,0.1
		c-0.3,0.1-0.5,0.2-0.7,0.4c-0.2,0.2-0.4,0.4-0.5,0.6c-0.1,0.2-0.2,0.5-0.2,0.8c0,0.4,0.1,0.8,0.4,1.1s0.6,0.5,1.1,0.7l1.2,0.5
		c0.3,0.1,0.6,0.3,0.7,0.4c0.1,0.1,0.2,0.3,0.2,0.5c0,0.1,0,0.3-0.1,0.4c-0.1,0.1-0.2,0.2-0.3,0.3c-0.1,0.1-0.3,0.1-0.4,0.2
		c-0.2,0-0.3,0.1-0.5,0.1c-0.2,0-0.3,0-0.5-0.1c-0.2,0-0.3-0.1-0.4-0.2c-0.1-0.1-0.2-0.2-0.3-0.3c-0.1-0.1-0.1-0.3-0.1-0.5l-1.3,0
		l0,1.1l0.7,0c0.2,0.3,0.4,0.5,0.7,0.7c0.3,0.2,0.7,0.3,1.2,0.3c0.4,0,0.7,0,1-0.1c0.3-0.1,0.6-0.2,0.8-0.4c0.2-0.2,0.4-0.4,0.5-0.6
		c0.1-0.2,0.2-0.5,0.2-0.8c0-0.4-0.1-0.8-0.4-1.1c-0.2-0.3-0.6-0.6-1.2-0.8l-1.3-0.5c-0.3-0.1-0.5-0.2-0.7-0.4
		c-0.1-0.1-0.2-0.3-0.2-0.5c0-0.1,0-0.2,0.1-0.3s0.1-0.2,0.2-0.3c0.1-0.1,0.2-0.1,0.4-0.2c0.1,0,0.3-0.1,0.5,0c0.2,0,0.3,0,0.5,0.1
		c0.2,0,0.3,0.1,0.4,0.2c0.1,0.1,0.2,0.2,0.3,0.3C238.2,132.4,238.2,132.6,238.2,132.8L238.2,132.8z"/>
	<path d="M246.5,134.5c0-0.2,0-0.3,0-0.5s0-0.3,0-0.5c0-0.3-0.1-0.7-0.2-1c-0.1-0.3-0.3-0.6-0.5-0.9c-0.2-0.3-0.5-0.5-0.8-0.6
		c-0.3-0.2-0.7-0.2-1.2-0.2c-0.5,0-1,0.1-1.3,0.3s-0.7,0.4-1,0.7c-0.3,0.3-0.5,0.7-0.6,1.1c-0.1,0.4-0.2,0.9-0.2,1.3
		c0,0.6,0.1,1.1,0.2,1.5c0.1,0.4,0.4,0.8,0.6,1.1c0.3,0.3,0.6,0.5,1,0.7s0.8,0.2,1.2,0.2c0.5,0,0.9-0.1,1.4-0.2
		c0.4-0.1,0.9-0.3,1.3-0.6l-0.5-0.8c-0.4,0.2-0.7,0.3-1,0.4c-0.3,0.1-0.7,0.1-1,0.1c-0.4,0-0.8-0.1-1.2-0.3c-0.3-0.2-0.6-0.5-0.7-1
		c0-0.1-0.1-0.3-0.1-0.4s0-0.3,0-0.5L246.5,134.5z M244.4,132c0.2,0.1,0.4,0.2,0.5,0.4c0.1,0.2,0.2,0.3,0.3,0.5s0.1,0.4,0.1,0.7
		l-3.4-0.1c0-0.3,0.1-0.5,0.2-0.7c0.1-0.2,0.2-0.4,0.4-0.5c0.1-0.1,0.3-0.3,0.5-0.3c0.2-0.1,0.4-0.1,0.7-0.1
		C244,131.9,244.2,131.9,244.4,132z"/>
	<path d="M252.7,131c-0.2,0-0.4,0-0.6,0c-0.2,0-0.4,0-0.6,0c-0.2,0-0.3,0-0.5,0.1c-0.1,0.1-0.3,0.1-0.4,0.2
		c-0.1,0.1-0.2,0.2-0.3,0.3s-0.2,0.2-0.3,0.4l0-0.9l-2.1,0l0,1.1l0.9,0l0.1,4.4l-0.9,0l0,1.1l3.2-0.1l0-1.1l-1.1,0l-0.1-3.2
		c0-0.2,0.1-0.4,0.2-0.6c0.1-0.2,0.2-0.3,0.3-0.4c0.1-0.1,0.3-0.2,0.4-0.2s0.3-0.1,0.4-0.1l0,0.4l1.2,0L252.7,131z"/>
	<path d="M256.6,132l0.9,0l0.2,7.3l-0.9,0l0,1.1l3.1-0.1l0-1.1l-1,0l-0.1-2.1c0.2,0.1,0.5,0.2,0.7,0.2c0.3,0.1,0.6,0.1,0.9,0.1
		c0.5,0,0.9-0.1,1.3-0.3c0.4-0.2,0.7-0.4,1-0.8c0.3-0.3,0.5-0.7,0.6-1.1c0.1-0.4,0.2-0.9,0.2-1.4c0-0.5-0.1-0.9-0.3-1.3
		c-0.2-0.4-0.4-0.7-0.6-1c-0.3-0.3-0.6-0.5-0.9-0.7c-0.4-0.2-0.8-0.2-1.2-0.2c-0.3,0-0.7,0.1-1,0.2s-0.6,0.3-0.9,0.5l0-0.5l-2.1,0.1
		L256.6,132z M261,131.9c0.2,0.1,0.5,0.2,0.7,0.4c0.2,0.2,0.3,0.4,0.5,0.7c0.1,0.3,0.2,0.6,0.2,1c0,0.4,0,0.8-0.1,1.1
		c-0.1,0.3-0.3,0.6-0.4,0.8c-0.2,0.2-0.4,0.4-0.6,0.5c-0.2,0.1-0.5,0.2-0.8,0.2c-0.4,0-0.7,0-1-0.1c-0.3-0.1-0.5-0.2-0.6-0.4
		l-0.1-3.5c0.2-0.2,0.4-0.4,0.7-0.5c0.3-0.1,0.6-0.2,0.9-0.2C260.5,131.7,260.8,131.8,261,131.9z"/>
	<path d="M265,135.4c0.2,0.4,0.4,0.8,0.7,1.1c0.3,0.3,0.7,0.5,1.1,0.7c0.4,0.2,0.9,0.2,1.3,0.2c0.5,0,0.9-0.1,1.3-0.3
		c0.4-0.2,0.7-0.4,1-0.8c0.3-0.3,0.5-0.7,0.6-1.1s0.2-0.9,0.2-1.4c0-0.5-0.1-1-0.3-1.4c-0.2-0.4-0.4-0.8-0.7-1.1
		c-0.3-0.3-0.7-0.5-1.1-0.7c-0.4-0.1-0.9-0.2-1.3-0.2c-0.5,0-0.9,0.1-1.3,0.3c-0.4,0.2-0.7,0.4-1,0.7c-0.3,0.3-0.5,0.7-0.6,1.1
		c-0.1,0.4-0.2,0.9-0.2,1.4C264.7,134.5,264.8,135,265,135.4z M266,132.9c0.1-0.3,0.2-0.6,0.4-0.8c0.2-0.2,0.4-0.4,0.6-0.5
		c0.2-0.1,0.5-0.2,0.8-0.2c0.3,0,0.6,0,0.8,0.1s0.5,0.2,0.7,0.4c0.2,0.2,0.3,0.5,0.5,0.8c0.1,0.3,0.2,0.7,0.2,1c0,0.4,0,0.7-0.1,1
		s-0.2,0.6-0.4,0.8c-0.2,0.2-0.4,0.4-0.6,0.5s-0.5,0.2-0.8,0.2c-0.3,0-0.5,0-0.8-0.1s-0.5-0.3-0.7-0.5c-0.2-0.2-0.4-0.5-0.5-0.8
		c-0.1-0.3-0.2-0.6-0.2-1C265.9,133.6,265.9,133.2,266,132.9z"/>
	<path d="M276.2,131.3l0.9,0l0.2,4c-0.2,0.2-0.5,0.3-0.8,0.4c-0.3,0.1-0.5,0.2-0.8,0.2c-0.4,0-0.8-0.1-1-0.3
		c-0.2-0.2-0.4-0.6-0.4-1.1l-0.2-4.1l-2.1,0.1l0.1,1.1l0.9,0l0.2,3.1c0,0.4,0.1,0.8,0.2,1.1c0.1,0.3,0.3,0.5,0.5,0.7
		s0.4,0.3,0.7,0.4s0.6,0.1,0.9,0.1c0.4,0,0.8-0.1,1.1-0.3s0.7-0.3,0.9-0.6l0,0.6l1.9-0.1l-0.1-1.1l-0.7,0l-0.3-5.5l-2.1,0.1
		L276.2,131.3z"/>
	<path d="M285.4,129.6c-0.2,0-0.4,0-0.6,0c-0.2,0-0.4,0-0.6,0c-0.2,0-0.3,0-0.5,0.1s-0.3,0.1-0.4,0.2c-0.1,0.1-0.2,0.2-0.3,0.3
		c-0.1,0.1-0.2,0.3-0.2,0.4l-0.1-0.9l-2.1,0.1l0.1,1.1l0.9-0.1l0.3,4.4l-0.9,0.1l0.1,1.1l3.2-0.2l-0.1-1.1l-1.1,0.1l-0.2-3.2
		c0-0.2,0.1-0.4,0.2-0.6c0.1-0.2,0.2-0.3,0.3-0.4c0.1-0.1,0.2-0.2,0.4-0.3s0.3-0.1,0.4-0.1l0,0.4l1.2-0.1L285.4,129.6z"/>
	<path d="M293.1,126.8l0.9-0.1l0.2,2.5c-0.3-0.2-0.5-0.3-0.8-0.3c-0.3,0-0.6-0.1-0.9,0c-0.5,0-0.9,0.2-1.3,0.4s-0.7,0.5-0.9,0.8
		s-0.4,0.7-0.5,1.1c-0.1,0.4-0.2,0.9-0.1,1.4c0,0.6,0.2,1,0.4,1.5c0.2,0.4,0.4,0.8,0.7,1s0.7,0.5,1,0.6c0.4,0.1,0.8,0.2,1.3,0.1
		c0.4,0,0.7-0.1,0.9-0.3s0.5-0.3,0.7-0.6l0,0.5l2.1-0.2l-0.1-1.1l-1,0.1l-0.8-8.7l-2.1,0.2L293.1,126.8z M292.3,134.6
		c-0.3-0.1-0.5-0.2-0.7-0.4c-0.2-0.2-0.4-0.4-0.5-0.7c-0.1-0.3-0.2-0.6-0.2-1c0-0.4,0-0.7,0.1-1s0.2-0.5,0.4-0.8
		c0.2-0.2,0.4-0.4,0.6-0.5s0.5-0.2,0.8-0.2c0.3,0,0.6,0,0.8,0c0.3,0.1,0.5,0.2,0.8,0.3l0.3,3.7c-0.2,0.2-0.4,0.4-0.6,0.5
		s-0.5,0.2-0.9,0.2C292.8,134.7,292.5,134.7,292.3,134.6z"/>
	<path d="M303.4,131.4c0-0.2,0-0.3-0.1-0.5c0-0.2-0.1-0.3-0.1-0.5c-0.1-0.3-0.2-0.6-0.3-0.9c-0.1-0.3-0.3-0.6-0.6-0.8
		s-0.5-0.4-0.9-0.5c-0.3-0.1-0.8-0.1-1.3-0.1c-0.5,0.1-0.9,0.2-1.3,0.4c-0.4,0.2-0.7,0.5-0.9,0.8s-0.4,0.7-0.5,1.1s-0.1,0.9-0.1,1.3
		c0.1,0.6,0.2,1.1,0.4,1.5c0.2,0.4,0.4,0.8,0.7,1s0.6,0.4,1,0.6c0.4,0.1,0.8,0.1,1.2,0.1c0.5,0,0.9-0.2,1.3-0.3
		c0.4-0.2,0.8-0.4,1.2-0.8l-0.6-0.8c-0.3,0.2-0.7,0.4-1,0.5c-0.3,0.1-0.6,0.2-1,0.2c-0.4,0-0.8,0-1.2-0.2c-0.4-0.2-0.6-0.5-0.8-0.9
		c-0.1-0.1-0.1-0.3-0.2-0.4s-0.1-0.3-0.1-0.5L303.4,131.4z M301.1,129.2c0.2,0.1,0.4,0.2,0.5,0.3c0.1,0.1,0.3,0.3,0.3,0.5
		c0.1,0.2,0.1,0.4,0.2,0.7l-3.4,0.3c0-0.3,0.1-0.5,0.1-0.7c0.1-0.2,0.2-0.4,0.3-0.6s0.3-0.3,0.5-0.4c0.2-0.1,0.4-0.2,0.7-0.2
		C300.6,129.1,300.9,129.1,301.1,129.2z"/>
	<path d="M308.6,129.2l1.3-0.1l-0.1-1.1l-0.6,0.1c-0.3-0.3-0.6-0.5-0.9-0.6c-0.3-0.1-0.7-0.1-1.2-0.1c-0.4,0-0.7,0.1-0.9,0.3
		s-0.5,0.3-0.7,0.5c-0.2,0.2-0.3,0.4-0.4,0.7s-0.1,0.5-0.1,0.8c0,0.4,0.2,0.8,0.5,1c0.3,0.3,0.7,0.4,1.2,0.6l1.3,0.3
		c0.3,0.1,0.6,0.2,0.7,0.3s0.2,0.3,0.3,0.5c0,0.1,0,0.3-0.1,0.4c-0.1,0.1-0.1,0.2-0.2,0.3c-0.1,0.1-0.2,0.2-0.4,0.2
		c-0.1,0.1-0.3,0.1-0.5,0.1c-0.2,0-0.3,0-0.5,0c-0.2,0-0.3-0.1-0.5-0.1c-0.1-0.1-0.3-0.2-0.3-0.3c-0.1-0.1-0.1-0.3-0.2-0.4l-1.3,0.1
		l0.1,1.1l0.7-0.1c0.2,0.2,0.5,0.4,0.8,0.6c0.3,0.1,0.8,0.2,1.3,0.1c0.4,0,0.7-0.1,1-0.3s0.5-0.3,0.7-0.5c0.2-0.2,0.3-0.4,0.4-0.7
		c0.1-0.3,0.1-0.5,0.1-0.8c0-0.4-0.2-0.8-0.5-1.1c-0.3-0.3-0.7-0.5-1.3-0.6l-1.3-0.3c-0.3-0.1-0.6-0.2-0.7-0.3
		c-0.1-0.1-0.2-0.3-0.3-0.5c0-0.1,0-0.2,0-0.4c0-0.1,0.1-0.2,0.2-0.3c0.1-0.1,0.2-0.2,0.3-0.2c0.1-0.1,0.3-0.1,0.5-0.1
		c0.2,0,0.3,0,0.5,0c0.2,0,0.3,0.1,0.5,0.1s0.3,0.2,0.4,0.3S308.6,129,308.6,129.2L308.6,129.2z"/>
	<path d="M313,124.7l0.9-0.1l1.1,8.7l1.2-0.2l-0.1-0.4c0.2,0.1,0.5,0.2,0.8,0.3c0.3,0.1,0.6,0.1,0.9,0c0.5-0.1,0.9-0.2,1.2-0.4
		c0.4-0.2,0.7-0.5,0.9-0.8c0.2-0.3,0.4-0.7,0.5-1.2c0.1-0.4,0.1-0.9,0-1.5c-0.1-0.5-0.2-0.9-0.4-1.3c-0.2-0.4-0.4-0.7-0.7-1
		c-0.3-0.3-0.6-0.4-1-0.5c-0.4-0.1-0.8-0.1-1.2-0.1c-0.3,0-0.7,0.2-1,0.3c-0.3,0.2-0.6,0.4-0.8,0.6l-0.5-3.8l-2.1,0.3L313,124.7z
		 M317.9,127.3c0.3,0.1,0.5,0.2,0.7,0.4c0.2,0.2,0.4,0.4,0.5,0.7c0.1,0.3,0.2,0.6,0.3,1c0.1,0.4,0,0.8,0,1.1s-0.2,0.6-0.4,0.8
		s-0.4,0.4-0.6,0.5c-0.2,0.1-0.5,0.2-0.8,0.3c-0.4,0.1-0.7,0-1,0c-0.3-0.1-0.5-0.2-0.6-0.3l-0.5-3.5c0.2-0.2,0.4-0.4,0.7-0.6
		c0.3-0.2,0.5-0.3,0.9-0.3C317.4,127.2,317.6,127.2,317.9,127.3z"/>
	<path d="M322.1,130.4c0.2,0.4,0.5,0.7,0.8,1c0.3,0.3,0.7,0.4,1.1,0.6s0.9,0.1,1.4,0.1c0.5-0.1,0.9-0.2,1.3-0.4
		c0.4-0.2,0.7-0.5,0.9-0.9c0.2-0.3,0.4-0.7,0.5-1.2c0.1-0.4,0.1-0.9,0-1.4c-0.1-0.5-0.2-1-0.4-1.4c-0.2-0.4-0.5-0.7-0.8-1
		c-0.3-0.3-0.7-0.4-1.1-0.5c-0.4-0.1-0.9-0.1-1.4,0c-0.5,0.1-0.9,0.2-1.3,0.4s-0.7,0.5-0.9,0.8c-0.2,0.3-0.4,0.7-0.5,1.2
		c-0.1,0.4-0.1,0.9,0,1.4C321.8,129.5,321.9,130,322.1,130.4z M322.9,127.8c0.1-0.3,0.2-0.6,0.3-0.8c0.2-0.2,0.3-0.4,0.6-0.6
		c0.2-0.1,0.5-0.2,0.8-0.3c0.3,0,0.6,0,0.8,0s0.5,0.2,0.7,0.4s0.4,0.4,0.5,0.7c0.1,0.3,0.3,0.6,0.3,1c0.1,0.4,0.1,0.7,0,1
		c-0.1,0.3-0.2,0.6-0.3,0.8c-0.2,0.2-0.3,0.4-0.6,0.6s-0.5,0.2-0.8,0.3c-0.3,0-0.5,0-0.8-0.1c-0.3-0.1-0.5-0.2-0.7-0.4
		c-0.2-0.2-0.4-0.4-0.5-0.7s-0.3-0.6-0.3-1C322.9,128.5,322.9,128.1,322.9,127.8z"/>
	<path d="M328.5,122.5l0.9-0.1l1.2,7.6l-0.9,0.1l0.2,1.1l3.1-0.5l-0.2-1.1l-1,0.2l-1.4-8.6l-2.1,0.3L328.5,122.5z"/>
	<path d="M333.9,128.6c0.2,0.4,0.5,0.7,0.8,1c0.3,0.3,0.7,0.4,1.1,0.5c0.4,0.1,0.9,0.1,1.4,0c0.5-0.1,0.9-0.2,1.3-0.5
		s0.7-0.5,0.9-0.9c0.2-0.4,0.4-0.8,0.5-1.2s0.1-0.9,0-1.4c-0.1-0.5-0.2-1-0.5-1.4c-0.2-0.4-0.5-0.7-0.8-1s-0.7-0.4-1.1-0.5
		c-0.4-0.1-0.9-0.1-1.4,0c-0.5,0.1-0.9,0.2-1.3,0.5c-0.4,0.2-0.7,0.5-0.9,0.9s-0.4,0.7-0.5,1.2c-0.1,0.4-0.1,0.9,0,1.4
		C333.5,127.8,333.7,128.2,333.9,128.6z M334.6,126c0.1-0.3,0.2-0.6,0.3-0.8c0.1-0.2,0.3-0.4,0.6-0.6c0.2-0.1,0.5-0.2,0.7-0.3
		c0.3,0,0.6,0,0.8,0c0.3,0.1,0.5,0.2,0.7,0.4c0.2,0.2,0.4,0.4,0.6,0.7s0.3,0.6,0.3,1c0.1,0.4,0.1,0.7,0,1c-0.1,0.3-0.2,0.6-0.3,0.8
		c-0.1,0.2-0.3,0.4-0.6,0.6s-0.5,0.3-0.8,0.3c-0.3,0-0.5,0-0.8,0c-0.3-0.1-0.5-0.2-0.7-0.4c-0.2-0.2-0.4-0.4-0.6-0.7s-0.3-0.6-0.3-1
		C334.6,126.6,334.6,126.3,334.6,126z"/>
	<path d="M344.5,123.8l1.3-0.2l-0.2-1.1l-0.6,0.1c-0.3-0.3-0.6-0.4-1-0.5c-0.3-0.1-0.7-0.1-1.2,0c-0.4,0.1-0.7,0.2-0.9,0.3
		c-0.3,0.1-0.5,0.3-0.6,0.5c-0.2,0.2-0.3,0.4-0.3,0.7c-0.1,0.3-0.1,0.5,0,0.8c0.1,0.4,0.3,0.7,0.6,1s0.7,0.4,1.2,0.5l1.3,0.2
		c0.3,0.1,0.6,0.1,0.8,0.3c0.2,0.1,0.3,0.3,0.3,0.5c0,0.1,0,0.3,0,0.4c0,0.1-0.1,0.2-0.2,0.3c-0.1,0.1-0.2,0.2-0.4,0.2
		c-0.1,0.1-0.3,0.1-0.5,0.1c-0.2,0-0.3,0-0.5,0c-0.2,0-0.3,0-0.5-0.1c-0.1-0.1-0.3-0.1-0.4-0.3s-0.2-0.3-0.2-0.4l-1.3,0.2l0.2,1.1
		l0.6-0.1c0.2,0.2,0.5,0.4,0.8,0.5c0.3,0.1,0.8,0.1,1.3,0c0.4-0.1,0.7-0.2,1-0.3s0.5-0.3,0.7-0.5c0.2-0.2,0.3-0.4,0.4-0.7
		c0.1-0.3,0.1-0.5,0-0.8c-0.1-0.4-0.3-0.8-0.6-1s-0.7-0.4-1.3-0.5l-1.3-0.2c-0.3-0.1-0.6-0.1-0.7-0.2c-0.2-0.1-0.3-0.3-0.3-0.5
		c0-0.1,0-0.2,0-0.4c0-0.1,0.1-0.2,0.2-0.3c0.1-0.1,0.2-0.2,0.3-0.2c0.1-0.1,0.3-0.1,0.4-0.1c0.1,0,0.3,0,0.5,0c0.2,0,0.3,0,0.5,0.1
		c0.1,0.1,0.3,0.1,0.4,0.2S344.5,123.6,344.5,123.8L344.5,123.8z"/>
	<path d="M350.6,122.6l1.3-0.2l-0.2-1.1l-0.6,0.1c-0.3-0.3-0.6-0.4-1-0.5s-0.7-0.1-1.2,0c-0.4,0.1-0.7,0.2-0.9,0.3
		c-0.3,0.1-0.5,0.3-0.6,0.5c-0.2,0.2-0.3,0.4-0.3,0.7c-0.1,0.3-0.1,0.5,0,0.8c0.1,0.4,0.3,0.7,0.6,1c0.3,0.2,0.7,0.4,1.2,0.5
		l1.3,0.2c0.3,0.1,0.6,0.1,0.8,0.3c0.2,0.1,0.3,0.3,0.3,0.5c0,0.1,0,0.3,0,0.4s-0.1,0.2-0.2,0.3c-0.1,0.1-0.2,0.2-0.4,0.3
		c-0.1,0.1-0.3,0.1-0.5,0.2c-0.2,0-0.3,0-0.5,0c-0.2,0-0.3,0-0.5-0.1c-0.1-0.1-0.3-0.1-0.4-0.2c-0.1-0.1-0.2-0.3-0.2-0.4l-1.3,0.3
		l0.2,1.1l0.6-0.1c0.2,0.2,0.5,0.4,0.9,0.5s0.8,0.1,1.3,0c0.4-0.1,0.7-0.2,1-0.3s0.5-0.3,0.7-0.5c0.2-0.2,0.3-0.4,0.4-0.7
		s0.1-0.5,0-0.8c-0.1-0.4-0.3-0.8-0.6-1c-0.3-0.3-0.7-0.4-1.3-0.5l-1.3-0.2c-0.3,0-0.6-0.1-0.7-0.2c-0.2-0.1-0.3-0.3-0.3-0.5
		c0-0.1,0-0.2,0-0.4s0.1-0.2,0.2-0.3c0.1-0.1,0.2-0.2,0.3-0.2c0.1-0.1,0.3-0.1,0.4-0.1c0.1,0,0.3,0,0.5,0c0.2,0,0.3,0,0.5,0.1
		c0.1,0.1,0.3,0.1,0.4,0.2S350.6,122.4,350.6,122.6L350.6,122.6z"/>
	<path class="st0" d="M245.8,72.8c-6.6,0-12,5.4-12,12c0,9.1,5.5,15.5,12,22c6.6-6.6,12-13,12-22C257.8,78.1,252.4,72.8,245.8,72.8z
		 M245.8,87.6c-2,0-3.6-1.6-3.6-3.6c0-2,1.6-3.6,3.6-3.6s3.6,1.6,3.6,3.6C249.4,86,247.8,87.6,245.8,87.6z"/>
	<path d="M188.6,33.1h11.2v-5.4h-2.1l-7.9-24.3H182l-8.1,24.3h-2.2v5.4h11.2v-5.4h-3.1l1.3-4.3h9.1l1.3,4.3h-2.9V33.1z M185.7,8.9
		l3,9.6h-6L185.7,8.9z"/>
	<path d="M217.1,8.9h3.4l-5.1,16.8l-5.2-16.8h3.2V3.5h-12.7v5.4h2.9l7.7,24.2h8l7.9-24.2h2.6V3.5h-12.7V8.9z"/>
	<path d="M247.6,33.1h11.2v-5.4h-2.1l-7.9-24.3H241l-8.1,24.3h-2.2v5.4h11.2v-5.4h-3.1l1.3-4.3h9.1l1.3,4.3h-2.9V33.1z M244.7,8.9
		l3,9.6h-6L244.7,8.9z"/>
	<path d="M280.2,8.9h2.5v14L270.5,3.5h-8.9v5.4h2.4v18.9h-2.4v5.4h11.2v-5.4h-2.5V14l12.3,19.1h6.5V8.9h2.4V3.5h-11.3V8.9z"/>
	<path d="M299.8,33.1h12.7v-5.4h-3.1V8.7h4.1v3.8h6.4v-9h-26.9v9h6.4V8.7h3.6v19.1h-3.1V33.1z"/>
</g>
</svg>
