<?xml version="1.0" encoding="utf-8"?>
<!DOCTYPE svg PUBLIC "-//W3C//DTD SVG 1.1//EN" "http://www.w3.org/Graphics/SVG/1.1/DTD/svg11.dtd">
<svg version="1.1" id="Calque_1" xmlns="http://www.w3.org/2000/svg" xmlns:xlink="http://www.w3.org/1999/xlink" x="0px" y="0px"
	 width="26px" height="36px" viewBox="0 0 26 36" style="enable-background:new 0 0 26 36;" xml:space="preserve">
<style type="text/css">
<![CDATA[
	.st0{fill-rule:evenodd;clip-rule:evenodd;fill:#dc3b17;}
]]>
</style>
<g id="Calque_1">

	<path class="st0" d="M13,1C6.373,1,1,6.373,1,13c0,9.128,5.5,15.5,12,22c6.627-6.627,12-12.999,12-22C25,6.373,19.627,1,13,1z
		 M13,14.834c-1.979,0-3.583-1.604-3.583-3.584c0-1.979,1.604-3.583,3.583-3.583c1.979,0,3.584,1.604,3.584,3.583
		C16.583,13.229,14.979,14.834,13,14.834z"/>
	<path class="st0" d="M13,1C6.373,1,1,6.373,1,13c0,9.128,5.5,15.5,12,22c6.627-6.627,12-12.999,12-22C25,6.373,19.627,1,13,1z
		 M13,14.834c-1.979,0-3.583-1.604-3.583-3.584c0-1.979,1.604-3.583,3.583-3.583c1.979,0,3.584,1.604,3.584,3.583
		C16.583,13.229,14.979,14.834,13,14.834z"/>

</g>
</svg>
