<?xml version="1.0" encoding="utf-8"?>
<!-- Generator: Adobe Illustrator 14.0.0, SVG Export Plug-In . SVG Version: 6.00 Build 43363)  -->
<!DOCTYPE svg PUBLIC "-//W3C//DTD SVG 1.1//EN" "http://www.w3.org/Graphics/SVG/1.1/DTD/svg11.dtd">
<svg version="1.1" id="Calque_1" xmlns="http://www.w3.org/2000/svg" xmlns:xlink="http://www.w3.org/1999/xlink" x="0px" y="0px"
	 width="73px" height="73px" viewBox="0 0 73 73" enable-background="new 0 0 73 73" xml:space="preserve">
<circle opacity="0.3" cx="36.5" cy="36.5" r="34"/>
<path fill="#FFFFFF" d="M36.5,72C16.925,72,1,56.075,1,36.5C1,16.925,16.925,1,36.5,1C56.075,1,72,16.925,72,36.5
	C72,56.075,56.075,72,36.5,72L36.5,72z M36.5,4C18.58,4,4,18.58,4,36.5C4,54.421,18.58,69,36.5,69C54.421,69,69,54.421,69,36.5
	C69,18.58,54.421,4,36.5,4L36.5,4z"/>
<polygon fill="#FFFFFF" points="28.7,54.5 28.7,18.5 52.3,36.5 "/>
</svg>
